<svg width="54" height="33" viewBox="0 0 54 33" fill="none" xmlns="http://www.w3.org/2000/svg">
<path d="M2.05634 21.589C2.21725 21.0287 2.33024 20.3394 2.40898 19.7026C2.95678 15.2152 7.39054 13.1803 10.6625 10.8522C14.4115 8.18621 18.1365 5.61041 22.1264 3.31079C27.8143 0.0308368 34.962 0.451958 41.3039 0.911881C42.5376 1.0009 44.0041 1.0922 45.1077 1.72103C46.3813 2.44686 44.2575 2.18894 44.1605 2.93303C44.0635 3.68398 45.0678 5.00783 45.369 5.67432C45.8233 6.67976 46.2478 7.70346 46.8116 8.65526C47.2019 9.3149 48.8464 11.8177 48.786 9.64587C48.7494 8.34484 48.0989 7.12827 47.55 5.98017C47.259 5.37074 46.1622 3.88484 46.4133 3.19666C46.5754 2.75272 46.9816 2.56898 47.009 2.59408C47.3514 2.91135 47.5443 3.71479 47.7394 4.12906C48.1354 4.97359 48.5497 5.80784 48.9526 6.64894C49.8039 8.42815 50.6131 10.2621 50.9167 12.2251C51.1369 13.6539 51.0228 15.1136 51.4439 16.5105C51.816 17.7453 52.4768 18.8888 52.7586 20.1534C52.883 20.7069 53.8463 23.5988 53.0394 23.9469C52.6274 24.126 52.2451 23.3968 52.1058 23.1126C54.0996 27.1994 52.2759 32.5245 47.2464 32.9742C43.9322 33.2697 41.628 31.0009 40.3978 28.1661C39.6183 28.8017 38.0753 28.6214 37.1235 28.6214C30.8832 28.6283 24.6405 28.6214 18.4025 28.6214C16.6175 28.6214 14.8669 28.2014 14.5987 26.1552C14.3818 28.0177 13.9755 29.6999 12.6186 31.0763C11.0756 32.6409 8.43935 33.369 6.38624 32.5964C4.37421 31.8397 2.9933 29.9852 1.96846 28.1775C1.94564 28.2916 1.85662 28.4012 1.83265 28.5084C-0.387077 27.5829 0.265718 23.7312 1.38871 22.2441C1.48914 22.1049 2.01525 21.7237 2.05634 21.589ZM42.9313 26.9187L42.9393 26.9929C43.486 31.6263 50.8082 31.0432 50.386 26.2374C50.3643 25.9851 50.3152 25.7443 50.2479 25.5149C50.2251 25.4373 50.1885 25.3654 50.1612 25.2947C50.1064 25.1452 50.0527 24.9934 49.9808 24.8553C49.9375 24.7708 49.8816 24.6944 49.8313 24.6168C49.7572 24.4981 49.6853 24.376 49.5985 24.2641C49.5369 24.1888 49.465 24.1192 49.3977 24.0484C49.3075 23.9503 49.2185 23.8521 49.1181 23.7654C49.0405 23.6958 48.956 23.641 48.8738 23.5805C48.77 23.5052 48.665 23.4265 48.5531 23.3625C48.463 23.3089 48.3683 23.2667 48.2735 23.2222C48.1571 23.1651 48.0419 23.1115 47.9197 23.0681C47.8193 23.0327 47.7155 23.0053 47.6127 22.9791C47.3825 22.9126 47.1447 22.8758 46.9052 22.8695C46.7203 22.8558 46.5343 22.8456 46.3437 22.8627C44.3214 23.0396 42.7453 24.9546 42.9313 26.9187ZM14.9947 12.5309L39.1641 10.5646C40.5747 10.4493 41.7753 9.20306 41.5961 7.79818C41.3404 5.79072 40.6032 3.23889 38.5398 2.63859C36.4433 2.03031 33.2992 2.14671 31.1 2.34073C29.6894 2.46512 27.4549 2.97298 26.1264 3.46258C22.8339 4.67572 17.0067 7.17962 13.8957 10.6376C12.9507 11.691 13.5852 12.6451 14.9947 12.5309ZM4.46666 26.9153C4.49062 27.1583 4.53513 27.3934 4.60018 27.6171C4.62415 27.6947 4.66409 27.7712 4.69148 27.8488C4.74512 27.9937 4.79648 28.141 4.86609 28.279C4.9106 28.3612 4.96995 28.4411 5.01902 28.5221C5.08898 28.6413 5.16517 28.7568 5.24727 28.8679C5.31178 28.9446 5.37995 29.0181 5.45155 29.0882C5.54057 29.1841 5.62845 29.2822 5.7266 29.3689C5.8042 29.4374 5.89322 29.4933 5.97767 29.5561C6.08039 29.628 6.18424 29.7079 6.29037 29.7707C6.38167 29.8254 6.47982 29.8688 6.57569 29.9145C6.68894 29.972 6.80556 30.0227 6.92491 30.0662C7.02749 30.1021 7.13187 30.1325 7.23761 30.1575C7.35951 30.1898 7.48291 30.2161 7.60738 30.2363C7.71955 30.2536 7.83283 30.2627 7.94633 30.2637C8.12952 30.2814 8.31382 30.2849 8.49755 30.274C9.04726 30.2258 9.5794 30.0561 10.0556 29.7772C10.5317 29.4984 10.94 29.1172 11.2509 28.6613C11.5617 28.2054 11.7675 27.6861 11.8532 27.141C11.939 26.5959 11.9026 26.0386 11.7467 25.5092C11.7227 25.4351 11.6828 25.362 11.6577 25.2901C11.6072 25.1399 11.5469 24.9931 11.4774 24.8507C11.4363 24.7663 11.3769 24.6887 11.3279 24.6099C11.256 24.4912 11.1829 24.368 11.0962 24.2607C11.0334 24.1842 10.9638 24.1135 10.893 24.0439C10.804 23.9457 10.715 23.8442 10.6146 23.7608C10.5404 23.6901 10.4479 23.6376 10.3692 23.576C10.2642 23.5018 10.1581 23.4185 10.0508 23.3591C9.96291 23.3043 9.86705 23.2633 9.77347 23.2165C9.65592 23.1594 9.5418 23.1058 9.4174 23.0624C9.31561 23.029 9.21242 23.0001 9.10812 22.9757C8.87727 22.91 8.63927 22.8729 8.3994 22.865C8.21452 22.8535 8.02964 22.841 7.84019 22.8581C6.85616 22.9457 5.94711 23.4202 5.31266 24.1775C4.67822 24.9347 4.37025 25.9128 4.45639 26.897C4.46438 26.9038 4.46666 26.9084 4.46666 26.9153Z" fill="white"/>
</svg>
