<svg width="91" height="27" viewBox="0 0 91 27" fill="none" xmlns="http://www.w3.org/2000/svg">
<path d="M0.826971 17.0458C1.83897 13.5458 9.84697 10.4678 11.439 9.88581C13.147 9.25981 17.533 7.7598 21.745 7.2078C29.139 3.5898 37.431 1.06181 37.589 1.01581C37.721 0.987806 41.001 0.299805 50.157 0.299805C56.243 0.299805 62.183 1.4998 67.423 2.5558C70.167 3.1098 72.757 3.63581 75.057 3.91981C81.665 4.73581 86.641 4.8118 86.691 4.8118C86.8842 4.81468 87.0722 4.87473 87.2313 4.98436C87.3904 5.09399 87.5135 5.2483 87.585 5.4278C87.703 5.7178 90.429 12.5818 90.429 15.7198C90.429 19.1158 85.689 22.5298 85.149 22.9098C84.985 23.0258 84.789 23.0858 84.589 23.0858H82.615C81.8744 24.2802 80.8419 25.2662 79.6148 25.951C78.3876 26.6358 77.0063 26.9967 75.601 26.9998C74.1952 26.9976 72.8132 26.6371 71.5856 25.9522C70.358 25.2674 69.3252 24.2808 68.585 23.0858H27.935C26.525 25.4198 23.987 26.9998 21.065 26.9998C18.143 26.9998 15.607 25.4198 14.193 23.0858H1.68497C1.47732 23.086 1.27497 23.0203 1.10711 22.8981C0.93924 22.7759 0.814531 22.6035 0.750967 22.4058C0.724967 22.3058 -0.00902912 19.9378 0.826971 17.0458ZM24.889 7.89181C26.7443 8.2657 28.626 8.49439 30.517 8.5758L30.465 8.47981C30.3968 8.35487 30.3564 8.21667 30.3466 8.07468C30.3367 7.93268 30.3577 7.79024 30.408 7.6571C30.4584 7.52396 30.5369 7.40327 30.6382 7.30329C30.7395 7.2033 30.8612 7.12639 30.995 7.07781L33.941 6.03581C34.0725 5.98955 34.2124 5.97188 34.3513 5.984C34.4902 5.99612 34.6249 6.03774 34.7464 6.10608C34.868 6.17442 34.9735 6.2679 35.056 6.38029C35.1386 6.49268 35.1962 6.62139 35.225 6.75781L35.609 8.6098C40.599 8.4458 46.143 7.77981 52.273 6.93381L49.587 2.2618C41.227 2.2898 38.097 2.91181 38.075 2.91181C33.589 4.32113 29.1866 5.9838 24.889 7.89181ZM67.035 4.47581C62.395 3.53981 57.189 2.53581 51.895 2.33581L54.369 6.64181L57.715 6.16781C61.129 5.68181 64.613 5.18381 68.227 4.71581L67.035 4.47581ZM75.601 25.0418C77.2827 25.0392 78.8948 24.3699 80.0839 23.1808C81.2731 21.9916 81.9423 20.3795 81.945 18.6978C81.9429 17.0161 81.2737 15.4039 80.0844 14.215C78.8951 13.026 77.2827 12.3574 75.601 12.3558C73.9188 12.3563 72.3055 13.0245 71.1157 14.2137C69.9258 15.4028 69.2566 17.0156 69.255 18.6978C69.2576 20.3799 69.9271 21.9923 71.1167 23.1815C72.3063 24.3707 73.9189 25.0397 75.601 25.0418ZM21.065 25.0418C22.6797 25.0402 24.2277 24.3981 25.3695 23.2563C26.5112 22.1146 27.1534 20.5665 27.155 18.9518C27.1539 17.337 26.5119 15.7886 25.3701 14.6467C24.2282 13.5048 22.6798 12.8629 21.065 12.8618C19.4501 12.8629 17.9017 13.5048 16.7599 14.6467C15.618 15.7886 14.976 17.337 14.975 18.9518C14.9776 20.5662 15.6201 22.1136 16.7616 23.2552C17.9031 24.3967 19.4506 25.0392 21.065 25.0418Z" fill="white"/>
<path d="M75.601 22.7398C73.3697 22.7398 71.561 20.931 71.561 18.6998C71.561 16.4686 73.3697 14.6598 75.601 14.6598C77.8322 14.6598 79.641 16.4686 79.641 18.6998C79.641 20.931 77.8322 22.7398 75.601 22.7398Z" fill="white"/>
<path d="M21.065 22.9918C18.8337 22.9918 17.025 21.183 17.025 18.9518C17.025 16.7206 18.8337 14.9118 21.065 14.9118C23.2962 14.9118 25.105 16.7206 25.105 18.9518C25.105 21.183 23.2962 22.9918 21.065 22.9918Z" fill="white"/>
</svg>
