<svg width="91" height="43" viewBox="0 0 91 43" fill="none" xmlns="http://www.w3.org/2000/svg">
<path d="M84.9214 0.0981445H35.7784C29.0328 0.0981445 16.1693 16.6964 16.1693 16.6964C16.1693 16.6964 8.79965 17.9315 3.98348 20.8201C-0.834544 23.7124 1.09674 35.2779 1.09674 35.2779H8.56449C8.56351 32.9777 9.47603 30.7714 11.1014 29.1439C12.7268 27.5164 14.932 26.6011 17.2321 26.5991C18.3716 26.5991 19.5 26.8236 20.5528 27.2598C21.6055 27.696 22.562 28.3353 23.3676 29.1413C24.1732 29.9472 24.8121 30.904 25.2479 31.9569C25.6836 33.0099 25.9076 34.1383 25.9071 35.2779H61.6831C61.6592 34.1238 61.866 32.9766 62.2911 31.9034C62.7163 30.8303 63.3513 29.8528 64.1591 29.0282C64.9668 28.2035 65.931 27.5484 66.9951 27.1012C68.0593 26.654 69.202 26.4236 70.3563 26.4236C71.5106 26.4236 72.6533 26.654 73.7174 27.1012C74.7816 27.5484 75.7458 28.2035 76.5535 29.0282C77.3612 29.8528 77.9963 30.8303 78.4214 31.9034C78.8466 32.9766 79.0533 34.1238 79.0295 35.2779H90.7134V14.0763C90.7042 14.0745 88.7766 0.0981445 84.9214 0.0981445ZM7.86086 24.9715H3.86682V22.4403H7.85901L7.86086 24.9715ZM45.0589 13.6467H23.7389C23.7389 13.6467 31.3344 4.01441 34.9433 4.01441H45.0607V13.6467H45.0589ZM66.1382 13.6467H49.401V4.01441H66.1382V13.6467ZM70.7229 13.6467L70.7192 4.01441H83.7253L85.8954 13.6467H70.7229ZM88.2841 30.0247H86.9342V14.0745H88.2841V30.0247ZM17.0303 27.5509C14.9817 27.5509 13.017 28.3647 11.5684 29.8132C10.1199 31.2618 9.30608 33.2265 9.30608 35.2751C9.30608 37.3237 10.1199 39.2883 11.5684 40.7369C13.017 42.1855 14.9817 42.9993 17.0303 42.9993C19.0582 42.9679 20.9923 42.1403 22.4153 40.6951C23.8383 39.25 24.6358 37.3032 24.6358 35.2751C24.6358 33.247 23.8383 31.3002 22.4153 29.855C20.9923 28.4099 19.0582 27.5823 17.0303 27.5509ZM17.0303 38.6608C16.3601 38.6608 15.705 38.4621 15.1477 38.0898C14.5905 37.7174 14.1562 37.1882 13.8997 36.569C13.6432 35.9499 13.5761 35.2685 13.7069 34.6112C13.8376 33.9539 14.1603 33.3501 14.6342 32.8762C15.1081 32.4023 15.7119 32.0796 16.3692 31.9489C17.0265 31.8181 17.7078 31.8852 18.327 32.1417C18.9462 32.3982 19.4754 32.8325 19.8478 33.3897C20.2201 33.947 20.4188 34.6021 20.4188 35.2723C20.4188 37.1425 18.8986 38.6608 17.0303 38.6608ZM70.11 27.5509C69.0856 27.5351 68.0683 27.7233 67.1173 28.1045C66.1663 28.4857 65.3006 29.0522 64.5706 29.7711C63.8407 30.49 63.261 31.347 62.8654 32.2921C62.4698 33.2371 62.2661 34.2515 62.2662 35.276C62.2663 36.3006 62.4703 37.3148 62.8661 38.2598C63.2619 39.2048 63.8418 40.0616 64.572 40.7804C65.3021 41.4991 66.1679 42.0654 67.119 42.4464C68.0701 42.8273 69.0874 43.0153 70.1119 42.9993C72.1397 42.9676 74.0738 42.1398 75.4966 40.6945C76.9194 39.2492 77.7167 37.3023 77.7165 35.2742C77.7162 33.246 76.9184 31.2994 75.4953 29.8544C74.0722 28.4094 72.1379 27.582 70.11 27.5509ZM70.1119 38.6608C69.2271 38.6402 68.3856 38.2742 67.7672 37.6411C67.1487 37.0081 66.8025 36.1582 66.8025 35.2732C66.8025 34.3882 67.1487 33.5384 67.7672 32.9053C68.3856 32.2723 69.2271 31.9063 70.1119 31.8856C70.9966 31.9063 71.8381 32.2723 72.4566 32.9053C73.075 33.5384 73.4212 34.3882 73.4212 35.2732C73.4212 36.1582 73.075 37.0081 72.4566 37.6411C71.8381 38.2742 70.9966 38.6402 70.1119 38.6608ZM26.4515 35.9907H62.1553V38.5183H26.4515V35.9907Z" fill="white"/>
</svg>
