<svg width="86" height="31" viewBox="0 0 86 31" fill="none" xmlns="http://www.w3.org/2000/svg">
<path d="M15.7539 18.2339C14.0608 18.2339 12.4371 18.9065 11.2399 20.1037C10.0427 21.3009 9.3701 22.9246 9.3701 24.6177C9.3701 24.8896 9.39232 25.1571 9.42652 25.4195C9.8223 28.5662 12.5005 30.9998 15.7531 30.9998C17.3513 30.9992 18.8911 30.3991 20.0682 29.3181C21.2453 28.2371 21.9741 26.7538 22.1104 25.1614C22.1249 24.9827 22.1369 24.8007 22.1369 24.6169C22.137 23.7786 21.972 22.9485 21.6513 22.1741C21.3305 21.3996 20.8604 20.6959 20.2676 20.1032C19.6749 19.5104 18.9712 19.0403 18.1967 18.7195C17.4223 18.3988 16.5922 18.2338 15.7539 18.2339ZM12.5586 22.2122L13.8596 23.5141C13.7569 23.6895 13.679 23.8782 13.628 24.0749H11.7935C11.8876 23.3808 12.1534 22.7465 12.5586 22.2122ZM11.785 25.1802H13.634C13.6861 25.3768 13.763 25.5632 13.8656 25.7341L12.5612 27.0377C12.1481 26.495 11.8808 25.8555 11.785 25.1802ZM15.2017 28.5833C14.529 28.4894 13.8916 28.2248 13.3502 27.8148L14.6478 26.5163C14.8188 26.6163 15.006 26.6898 15.2017 26.7411V28.5833ZM15.2017 22.4943C15.0037 22.5463 14.8138 22.6254 14.6375 22.7294L13.3373 21.4292C13.8819 21.0158 14.5242 20.7502 15.2017 20.6582V22.4943ZM16.307 20.6565C16.9845 20.749 17.6267 21.0149 18.1714 21.4284L16.872 22.7286C16.6957 22.6245 16.5059 22.5454 16.3079 22.4935L16.307 20.6565ZM16.307 28.5815V26.742C16.5008 26.6925 16.6869 26.6165 16.8601 26.5163L18.1586 27.8148C17.6169 28.2242 16.9795 28.4881 16.307 28.5815ZM18.9501 27.0437L17.6414 25.7333C17.744 25.5614 17.8269 25.3777 17.879 25.1811H19.7135C19.6227 25.8571 19.3599 26.4984 18.9501 27.0437ZM17.8816 24.0749C17.8302 23.8783 17.7523 23.6897 17.6499 23.5141L18.9527 22.2122C19.3553 22.7465 19.6212 23.3808 19.7169 24.0758L17.8816 24.0749ZM68.7607 18.2339C67.9224 18.2339 67.0923 18.399 66.3178 18.7198C65.5432 19.0406 64.8395 19.5109 64.2467 20.1037C63.6539 20.6965 63.1837 21.4002 62.8629 22.1747C62.542 22.9493 62.3769 23.7794 62.3769 24.6177C62.3769 24.8896 62.3992 25.1571 62.4333 25.4195C62.8291 28.5662 65.5073 30.9998 68.759 30.9998C72.0997 30.9998 74.8386 28.4319 75.1172 25.1614C75.1318 24.9827 75.1437 24.8007 75.1437 24.6169C75.144 23.7786 74.979 22.9485 74.6583 22.1739C74.3376 21.3994 73.8675 20.6957 73.2747 20.1029C72.6819 19.5102 71.9782 19.04 71.2037 18.7193C70.4292 18.3986 69.599 18.2337 68.7607 18.2339ZM65.5654 22.2122L66.8656 23.5141C66.7629 23.6895 66.6849 23.8782 66.6339 24.0749H64.7995C64.8897 23.3983 65.1536 22.7566 65.5654 22.2122ZM64.7927 25.1802H66.6416C66.6938 25.3768 66.7707 25.5632 66.8733 25.7341L65.5697 27.0377C65.155 26.4958 64.8873 25.856 64.7927 25.1802ZM68.2085 28.5833C67.5359 28.4894 66.8984 28.2248 66.357 27.8148L67.6546 26.5163C67.8256 26.6163 68.0128 26.6898 68.2085 26.7411V28.5833ZM68.2085 22.4943C68.0105 22.5463 67.8207 22.6254 67.6443 22.7294L66.3442 21.4292C66.8887 21.0157 67.531 20.75 68.2085 20.6582V22.4943ZM69.3147 20.6565C69.9922 20.749 70.6344 21.0149 71.1791 21.4284L69.8789 22.7286C69.7029 22.6238 69.5129 22.5447 69.3147 22.4935V20.6565ZM69.3147 28.5815V26.742C69.5085 26.6925 69.6946 26.6165 69.8678 26.5163L71.1662 27.8148C70.6245 28.224 69.9871 28.488 69.3147 28.5815ZM71.9569 27.0437L70.6482 25.735C70.7508 25.5623 70.8346 25.3794 70.8858 25.1819H72.7203C72.6297 25.8577 72.3669 26.4989 71.9569 27.0437ZM70.8884 24.0749C70.8374 23.8782 70.7595 23.6895 70.6568 23.5141L71.9587 22.2122C72.3621 22.7465 72.6271 23.3808 72.7237 24.0758L70.8884 24.0749Z" fill="white"/>
<path d="M84.0895 14.9292V10.2054C84.0895 9.44549 83.5373 8.80181 82.7867 8.6847C80.9856 8.40261 77.7928 7.87005 76.3584 7.42811C74.3017 6.79383 66.3553 3.42924 63.6036 2.79752C60.8511 2.1658 48.4407 -1.20733 36.5544 2.91292C34.543 3.6096 25.4947 7.93502 20.1742 10.1841C18.6073 10.2183 3.09824 13.4512 2.27248 15.6669C1.44672 17.8835 1.18771 18.9588 1.03555 19.5213C0.883391 20.0838 1.03555 22.7756 2.18785 24.6503C3.36238 25.3145 5.6234 25.7607 8.23745 26.0599C8.20753 25.9 8.17505 25.7427 8.15453 25.5812C8.11129 25.2624 8.08902 24.9412 8.08785 24.6195C8.08785 20.3924 11.526 16.9526 15.7539 16.9526C19.9819 16.9526 23.42 20.3915 23.42 24.6195C23.42 24.8366 23.4055 25.052 23.3892 25.264C23.3495 25.7305 23.2659 26.1921 23.1396 26.6429H23.1601L61.2135 25.8769C61.1964 25.7786 61.1742 25.6812 61.1614 25.5812C61.118 25.2624 61.0958 24.9412 61.0947 24.6195C61.0947 20.3924 64.5328 16.9534 68.7607 16.9534C72.9887 16.9534 76.4277 20.3915 76.4277 24.6195C76.4277 24.6357 76.426 24.6494 76.4251 24.6648L76.5875 24.6511L83.0936 23.4262C83.0936 23.4262 85.5854 22.0995 85.5854 18.4494C85.5863 16.0148 84.0895 14.9292 84.0895 14.9292ZM46.3413 10.4508L32.1298 10.8859C32.3914 8.75651 31.1305 8.27866 31.1305 8.27866C36.78 3.15056 48.1663 2.97703 48.1663 2.97703L46.3413 10.4508ZM62.2906 9.80025L49.34 10.2354L50.5137 2.97789C57.2069 2.89069 61.0306 4.36783 61.0306 4.36783L62.9428 7.45375L62.2906 9.80025ZM69.5916 9.75579H65.9834L62.3761 4.80208C64.4754 5.6362 66.5321 6.57395 68.5385 7.61189C68.92 7.80991 69.2281 8.12489 69.4176 8.51068C69.6071 8.89648 69.6681 9.33282 69.5916 9.75579Z" fill="white"/>
</svg>
