<svg width="70" height="31" viewBox="0 0 70 31" fill="none" xmlns="http://www.w3.org/2000/svg">
<path d="M55.3112 25.0912C55.3112 25.3431 55.3315 25.5894 55.3631 25.8343C55.7287 28.7458 58.2093 30.9998 61.2205 30.9998C64.313 30.9998 66.8477 28.6216 67.1038 25.5965C67.1195 25.4285 67.1282 25.2599 67.1298 25.0912C67.1059 23.5397 66.4728 22.0599 65.3671 20.9712C64.2615 19.8825 62.7721 19.2723 61.2205 19.2723C59.6688 19.2723 58.1794 19.8825 57.0738 20.9712C55.9682 22.0599 55.3351 23.5397 55.3112 25.0912ZM64.8877 24.5902H63.1895C63.1423 24.4078 63.07 24.2328 62.9748 24.0702L64.1804 22.8646C64.5606 23.3694 64.8042 23.9637 64.8877 24.5902ZM64.1804 27.3375L62.9671 26.1249C63.0625 25.9649 63.139 25.7951 63.1867 25.6126H64.8849C64.8012 26.2383 64.5587 26.8321 64.1804 27.3375ZM61.7327 27.0575C61.9145 27.0105 62.0864 26.941 62.2443 26.8476L63.4457 28.0504C62.9445 28.4298 62.3546 28.6745 61.732 28.7613L61.7327 27.0575ZM61.7327 21.4261C62.36 21.5114 62.9545 21.7577 63.4583 22.1411L62.2541 23.3453C62.0913 23.248 61.9155 23.1743 61.732 23.1264L61.7327 21.4261ZM58.2599 22.8646L59.4661 24.0702C59.3706 24.2326 59.2983 24.4077 59.2514 24.5902H57.5532C57.6374 23.964 57.8807 23.3699 58.2599 22.8646ZM60.7089 23.1264C60.5253 23.1741 60.3495 23.2478 60.1868 23.3453L58.9826 22.1404C59.487 21.7582 60.0813 21.5122 60.7082 21.4261L60.7089 23.1264ZM58.9939 28.0511L60.1945 26.8498C60.3531 26.9431 60.5272 27.0105 60.7075 27.0575V28.762C60.085 28.6751 59.4951 28.4304 58.9939 28.0511ZM57.5476 25.6126H59.2584C59.3068 25.7951 59.3791 25.967 59.4731 26.1256L58.2648 27.3332C57.8823 26.8306 57.6354 26.2381 57.5476 25.6126ZM6.45295 25.0912C6.45295 25.3431 6.474 25.5894 6.50488 25.8343C6.87048 28.7458 9.35111 30.9998 12.3622 30.9998C15.4555 30.9998 17.9902 28.6216 18.2463 25.5965C18.261 25.4294 18.2723 25.261 18.2723 25.0912C18.2723 23.5239 17.6496 22.0207 16.5414 20.9125C15.4331 19.8042 13.9299 19.1816 12.3626 19.1816C10.7953 19.1816 9.29212 19.8042 8.18385 20.9125C7.07557 22.0207 6.45295 23.5239 6.45295 25.0912ZM16.0302 24.5902H14.3313C14.2846 24.4077 14.2126 24.2327 14.1173 24.0702L15.3229 22.8646C15.7025 23.3697 15.9461 23.9639 16.0302 24.5902ZM15.3222 27.3375L14.1096 26.1249C14.2043 25.9649 14.2815 25.7951 14.3292 25.6126H16.0274C15.9435 26.2383 15.7007 26.8322 15.3222 27.3375ZM12.8738 27.0575C13.0556 27.0105 13.2282 26.941 13.3861 26.8476L14.5874 28.0504C14.086 28.4298 13.4959 28.6745 12.8731 28.7613L12.8738 27.0575ZM12.8738 21.4261C13.5011 21.5112 14.0957 21.7576 14.5994 22.1411L13.3959 23.3453C13.2329 23.2479 13.0569 23.1742 12.8731 23.1264L12.8738 21.4261ZM9.40163 22.8646L10.6086 24.0702C10.5131 24.2326 10.4408 24.4077 10.3939 24.5902H8.69499C8.77916 23.964 9.02245 23.3699 9.40163 22.8646ZM11.8507 23.1264C11.6671 23.174 11.4913 23.2477 11.3286 23.3453L10.1244 22.1404C10.6291 21.7582 11.2235 21.5122 11.8507 21.4261V23.1264ZM10.1363 28.0511L11.337 26.8498C11.4956 26.9431 11.6689 27.0105 11.85 27.0575V28.762C11.2274 28.6752 10.6375 28.4305 10.1363 28.0511ZM8.68867 25.6126H10.3995C10.4479 25.7951 10.5202 25.967 10.6135 26.1256L9.40514 27.3332C9.02377 26.83 8.77716 26.2378 8.68867 25.6126Z" fill="white"/>
<path d="M0.425048 26.4511L5.16175 26.3774C5.1414 26.2567 5.11544 26.1375 5.0993 26.0147C5.05856 25.709 5.03746 25.401 5.03614 25.0926C5.03614 21.0527 8.32236 17.7672 12.3615 17.7672C16.4021 17.7672 19.6883 21.0541 19.6883 25.0926C19.6883 25.3031 19.675 25.5094 19.6582 25.7178C19.6455 25.8645 19.621 26.0076 19.5999 26.1522L53.9168 25.6133C53.9021 25.4403 53.8943 25.2668 53.8937 25.0933C53.8937 21.0534 57.1799 17.7679 61.2198 17.7679C64.8997 17.7679 67.9473 20.4983 68.461 24.0386C68.8701 23.1411 69.2652 21.9116 69.1115 20.7095C68.8181 18.4233 66.8252 16.2037 66.708 15.0873C66.5908 13.9708 67.0828 13.0543 66.7894 11.4719C66.4961 9.88953 63.7481 4.66653 60.9643 2.89395C58.9419 1.60627 57.4851 0.729809 51.3429 0.377539C42.6898 -0.118586 36.751 0.447011 31.5364 2.03223C28.4362 2.97535 17.8238 8.49659 14.6064 10.2783C10.7974 12.3877 9.25848 12.714 6.62697 13.667C3.58636 14.768 1.65449 17.184 0.892403 19.01C0.13032 20.8359 -0.424752 23.1102 0.425048 26.4511ZM49.1008 10.2341L48.1914 2.51642C53.2291 2.60484 58.457 3.00132 58.916 4.76688C59.1883 5.81316 57.8107 8.31063 56.161 9.04535C54.8866 9.61305 52.9098 9.82778 49.1008 10.2341ZM24.5156 9.09376L25.091 7.41031C31.9055 3.75077 35.3812 2.49046 43.8301 2.49046H45.0245L44.054 10.7204C35.1946 11.507 24.7373 12.1512 24.7373 12.1512C25.5787 10.4228 24.5156 9.09376 24.5156 9.09376Z" fill="white"/>
</svg>
