<svg width="90" height="45" viewBox="0 0 90 45" fill="none" xmlns="http://www.w3.org/2000/svg">
<path d="M16.5441 23.8235C22.8124 23.8235 28.0099 28.4109 28.9615 34.4118H55.5882V7.94118C55.5882 5.83505 54.7516 3.81518 53.2623 2.32592C51.7731 0.836657 49.7532 0 47.6471 0L32.7706 0C31.6696 4.47025e-05 30.5806 0.229034 29.5729 0.672426C28.5651 1.11582 27.6605 1.76392 26.9166 2.57559L15.9313 14.5588H5.29412C3.89003 14.5588 2.54345 15.1166 1.55061 16.1094C0.557771 17.1023 3.33786e-06 18.4489 3.33786e-06 19.8529V30.4412C3.33786e-06 31.4942 0.418329 32.5042 1.16296 33.2488C1.90759 33.9934 2.91753 34.4118 3.97059 34.4118H4.12676C5.07838 28.4109 10.2759 23.8235 16.5441 23.8235ZM50.2941 14.5588H41.0294V5.29412H47.6471C48.3491 5.29412 49.0224 5.573 49.5188 6.06942C50.0152 6.56584 50.2941 7.23913 50.2941 7.94118V14.5588ZM35.7353 14.5588H23.1128L30.8184 6.15309C31.0664 5.88234 31.3681 5.66616 31.7041 5.51828C32.0402 5.37041 32.4034 5.29407 32.7706 5.29412H35.7353V14.5588ZM74.7794 23.8235C81.0476 23.8235 86.2451 28.4109 87.1968 34.4118H87.3529C88.055 34.4118 88.7283 34.1329 89.2247 33.6365C89.7211 33.14 90 32.4667 90 31.7647V19.8529C90 18.4489 89.4422 17.1023 88.4494 16.1094C87.4565 15.1166 86.11 14.5588 84.7059 14.5588H60.8824V34.4118H62.3621C63.3137 28.4109 68.5112 23.8235 74.7794 23.8235ZM74.7794 45C77.0611 45 79.2492 44.0936 80.8626 42.4803C82.476 40.8669 83.3824 38.6787 83.3824 36.3971C83.3824 34.1154 82.476 31.9272 80.8626 30.3139C79.2492 28.7005 77.0611 27.7941 74.7794 27.7941C72.4978 27.7941 70.3096 28.7005 68.6962 30.3139C67.0829 31.9272 66.1765 34.1154 66.1765 36.3971C66.1765 38.6787 67.0829 40.8669 68.6962 42.4803C70.3096 44.0936 72.4978 45 74.7794 45ZM74.7794 39.7059C73.9019 39.7059 73.0602 39.3573 72.4397 38.7367C71.8192 38.1162 71.4706 37.2746 71.4706 36.3971C71.4706 35.5195 71.8192 34.6779 72.4397 34.0574C73.0602 33.4368 73.9019 33.0882 74.7794 33.0882C75.657 33.0882 76.4986 33.4368 77.1191 34.0574C77.7396 34.6779 78.0882 35.5195 78.0882 36.3971C78.0882 37.2746 77.7396 38.1162 77.1191 38.7367C76.4986 39.3573 75.657 39.7059 74.7794 39.7059ZM16.5441 45C18.8258 45 21.014 44.0936 22.6273 42.4803C24.2407 40.8669 25.1471 38.6787 25.1471 36.3971C25.1471 34.1154 24.2407 31.9272 22.6273 30.3139C21.014 28.7005 18.8258 27.7941 16.5441 27.7941C14.2625 27.7941 12.0743 28.7005 10.4609 30.3139C8.84756 31.9272 7.94118 34.1154 7.94118 36.3971C7.94118 38.6787 8.84756 40.8669 10.4609 42.4803C12.0743 44.0936 14.2625 45 16.5441 45ZM16.5441 39.7059C15.6666 39.7059 14.825 39.3573 14.2044 38.7367C13.5839 38.1162 13.2353 37.2746 13.2353 36.3971C13.2353 35.5195 13.5839 34.6779 14.2044 34.0574C14.825 33.4368 15.6666 33.0882 16.5441 33.0882C17.4217 33.0882 18.2633 33.4368 18.8838 34.0574C19.5043 34.6779 19.8529 35.5195 19.8529 36.3971C19.8529 37.2746 19.5043 38.1162 18.8838 38.7367C18.2633 39.3573 17.4217 39.7059 16.5441 39.7059Z" fill="white"/>
</svg>
