<svg width="32" height="29" viewBox="0 0 32 29" fill="none" xmlns="http://www.w3.org/2000/svg">
<path d="M14.5957 28.4997C14.4989 28.4997 14.4031 28.4798 14.3145 28.4413C14.2258 28.4027 14.1461 28.3464 14.0804 28.2758L0.186442 13.3471C0.0938214 13.2476 0.0324198 13.1234 0.00975198 12.9897C-0.0129158 12.8561 0.00413338 12.7188 0.0588132 12.5946C0.113493 12.4704 0.203431 12.3648 0.317621 12.2906C0.43181 12.2164 0.565297 12.1769 0.701745 12.1769H7.38952C7.48993 12.1769 7.58918 12.1983 7.68055 12.2397C7.77193 12.281 7.85331 12.3413 7.91921 12.4166L12.5626 17.7229C13.0644 16.6574 14.0359 14.8832 15.7406 12.7214C18.2608 9.52532 22.9484 4.82496 30.9684 0.5818C31.1234 0.499806 31.3037 0.478525 31.4738 0.52216C31.6438 0.565795 31.7912 0.671174 31.8868 0.817488C31.9825 0.963802 32.0194 1.14042 31.9903 1.31245C31.9612 1.48449 31.8683 1.63945 31.7298 1.74673C31.6992 1.7705 28.607 4.18931 25.0482 8.61977C21.7729 12.6969 17.4191 19.3636 15.2767 27.9702C15.239 28.1214 15.1515 28.2558 15.028 28.3518C14.9046 28.4478 14.7523 28.5 14.5955 28.5L14.5957 28.4997Z" fill="#AFFA00"/>
</svg>
