<svg width="104" height="104" viewBox="0 0 104 104" fill="none" xmlns="http://www.w3.org/2000/svg">
<g clip-path="url(#clip0_366_14141)">
<path d="M52 29.1992L63.4313 35.2097L61.2477 22.4802L70.5018 13.4617L57.7161 11.6051L52 0L46.2841 11.6051L33.4982 13.4617L42.7523 22.4802L40.5687 35.2097L52 29.1992ZM90.6216 32.3231L84.9056 20.7401L79.1893 32.3231L66.4099 34.1796L75.6578 43.1958L73.4742 55.9276L84.9054 49.9172L96.3432 55.9276L94.1531 43.1958L104 34.1798L90.6216 32.3231ZM9.84689 43.1958L7.6568 55.9276L19.0946 49.9172L30.5258 55.9276L28.3422 43.1958L37.5901 34.1798L24.8107 32.3231L19.0946 20.7401L13.3786 32.3231L0 34.1796L9.84689 43.1958ZM67.2344 58.0938C67.2344 49.6941 60.3996 42.8594 52 42.8594C43.6004 42.8594 36.7656 49.6941 36.7656 58.0938C36.7656 66.4934 43.6004 73.3281 52 73.3281C60.3996 73.3281 67.2344 66.4934 67.2344 58.0938ZM30.6719 94.6562V104H73.3281V94.6562C73.3281 82.8973 63.7589 73.3281 52 73.3281C40.2411 73.3281 30.6719 82.8973 30.6719 94.6562ZM97.7031 100.75C97.7031 92.3504 90.8684 85.5156 82.4688 85.5156C80.8929 85.5156 79.4028 85.825 77.9722 86.271C78.8348 88.9308 79.4219 91.7134 79.4219 94.6562V104H97.7031V100.75Z" fill="white"/>
<path d="M94.6562 73.3281C94.6562 66.6067 89.1902 61.1406 82.4688 61.1406C75.7473 61.1406 70.2812 66.6067 70.2812 73.3281C70.2812 73.7161 70.3599 74.0827 70.3956 74.4612C73.4002 77.2003 75.8235 80.5431 77.3803 84.3667C78.934 85.0864 80.6469 85.5156 82.4688 85.5156C89.1902 85.5156 94.6562 80.0495 94.6562 73.3281ZM33.6046 74.4612C33.6401 74.0827 33.7188 73.7161 33.7188 73.3281C33.7188 66.6067 28.2527 61.1406 21.5312 61.1406C14.8098 61.1406 9.34375 66.6067 9.34375 73.3281C9.34375 80.0495 14.8098 85.5156 21.5312 85.5156C23.3531 85.5156 25.066 85.0864 26.6195 84.3676C28.1765 80.5431 30.5998 77.2001 33.6044 74.4612H33.6046ZM6.29688 100.75V104H24.5781V94.6562C24.5781 91.7134 25.1652 88.9306 26.0278 86.271C24.5972 85.825 23.1069 85.5156 21.5312 85.5156C13.1316 85.5156 6.29688 92.3504 6.29688 100.75Z" fill="white"/>
</g>
<defs>
<clipPath id="clip0_366_14141">
<rect width="104" height="104" fill="white"/>
</clipPath>
</defs>
</svg>
