<svg width="99" height="99" viewBox="0 0 99 99" fill="none" xmlns="http://www.w3.org/2000/svg">
<rect width="99" height="99" rx="15" fill="#0C0C0C"/>
<path d="M25.3232 29.25H47.7232V37.51H34.1432V45.42H47.7232V53.4H34.1432V61.59H47.4432V69.5H25.3232V29.25ZM51.1532 61.59V69.5H73.5532V61.59H51.1532ZM73.5532 37.51V29.25H50.8732V37.51H73.5532ZM62.2132 53.4V45.42H50.8732V53.4H62.2132Z" fill="white"/>
<path d="M35.3099 71.5H42L23.6901 89.5H17L35.3099 71.5Z" fill="#BFF84E"/>
<path d="M85.3099 9.5H92L73.6901 27.5H67L85.3099 9.5Z" fill="#BFF84E"/>
<path d="M25.3099 71.5H32L13.6901 89.5H7L25.3099 71.5Z" fill="#BFF84E"/>
<path d="M75.3099 9.5H82L63.6901 27.5H57L75.3099 9.5Z" fill="#BFF84E"/>
</svg>
