<svg width="88" height="36" viewBox="0 0 88 36" fill="none" xmlns="http://www.w3.org/2000/svg">
<path d="M70.588 20.9139C70.388 20.9139 70.1901 20.9211 69.9943 20.9367C69.9352 20.9418 69.8762 20.947 69.8181 20.9532C69.7725 20.9574 69.728 20.9626 69.6845 20.9677L69.6078 20.9771C69.5622 20.9833 69.5166 20.9895 69.471 20.9968C69.4234 21.004 69.3757 21.0113 69.328 21.0196C69.2265 21.0361 69.125 21.0558 69.0244 21.0776C68.9094 21.1014 68.7965 21.1283 68.6836 21.1574H68.6825C68.5882 21.1822 68.4939 21.2092 68.4007 21.2371C68.3447 21.2537 68.2888 21.2713 68.2339 21.29C68.1841 21.3055 68.1354 21.3221 68.0867 21.3397L67.9406 21.3926C67.8919 21.4112 67.8443 21.4299 67.7966 21.4485C67.7003 21.4869 67.606 21.5273 67.5117 21.5687C67.4288 21.606 67.3459 21.6454 67.264 21.6858C67.2309 21.7013 67.1988 21.7169 67.1666 21.7345C67.0972 21.7697 67.0288 21.806 66.9615 21.8433C66.9169 21.8682 66.8724 21.893 66.8278 21.9189C66.6946 21.9945 66.5643 22.075 66.4372 22.1603C66.3957 22.1873 66.3543 22.2153 66.3129 22.2432C66.3108 22.2453 66.3087 22.2464 66.3066 22.2484C66.2662 22.2764 66.2258 22.3044 66.1864 22.3334C66.1398 22.3665 66.0932 22.4007 66.0476 22.436C65.972 22.493 65.8974 22.552 65.8238 22.6121C65.7844 22.6442 65.745 22.6763 65.7067 22.7095C65.6704 22.7396 65.6352 22.7706 65.6 22.8017C65.5575 22.839 65.516 22.8763 65.4756 22.9147C65.4394 22.9478 65.4041 22.982 65.3679 23.0162C65.2943 23.0856 65.2228 23.1582 65.1534 23.2307C65.1223 23.2628 65.0912 23.296 65.0612 23.3281C65.0177 23.3758 64.9741 23.4234 64.9317 23.4711C64.9037 23.5042 64.8747 23.5364 64.8467 23.5695C64.8135 23.6089 64.7814 23.6472 64.7493 23.6866C64.7172 23.726 64.6851 23.7653 64.654 23.8058C64.5284 23.9658 64.4094 24.1311 64.2975 24.301C64.2105 24.4316 64.1276 24.5663 64.0489 24.7031C64.0199 24.7549 63.9908 24.8056 63.9629 24.8574C63.9349 24.9093 63.9069 24.9621 63.88 25.0149C63.8634 25.0471 63.8468 25.0792 63.8313 25.1113C63.7656 25.2443 63.7034 25.3791 63.6448 25.5154C63.6251 25.5631 63.6054 25.6118 63.5867 25.6594C63.5671 25.7081 63.5484 25.7558 63.5308 25.8045C63.5173 25.8387 63.5049 25.8729 63.4935 25.9071C63.4811 25.9402 63.4686 25.9744 63.4572 26.0096C63.3539 26.311 63.2701 26.6186 63.2065 26.9308C63.194 26.9919 63.1816 27.053 63.1712 27.1152C63.1598 27.1763 63.1495 27.2385 63.1402 27.3017C63.1308 27.3608 63.1225 27.4198 63.1153 27.4789C63.1101 27.5203 63.1049 27.5608 63.1008 27.6022C63.0925 27.6737 63.0852 27.7462 63.0801 27.8187C63.0759 27.856 63.0728 27.8934 63.0707 27.9307L63.0676 27.9866C63.0645 28.0312 63.0625 28.0767 63.0604 28.1223C63.0573 28.1762 63.0562 28.2301 63.0552 28.285C63.0458 28.6981 63.0708 29.1112 63.1298 29.5201C63.1464 29.6341 63.165 29.7481 63.1868 29.861C63.194 29.9035 63.2023 29.9449 63.2117 29.9874C63.2127 29.9936 63.2137 30.0009 63.2158 30.0071C63.2262 30.0558 63.2365 30.1045 63.2479 30.1532C63.2583 30.2019 63.2707 30.2496 63.2821 30.2972L63.2883 30.319C63.3592 30.5974 63.4464 30.8714 63.5494 31.1396C63.5722 31.2007 63.5971 31.2619 63.622 31.323C63.7059 31.527 63.7989 31.7272 63.9007 31.9229C65.1565 34.3361 67.6795 36.0002 70.588 36.0002C73.5089 36.0002 76.0402 34.3226 77.2919 31.8939C77.3074 31.8639 77.3229 31.8317 77.3375 31.8007C77.3685 31.7385 77.3986 31.6763 77.4266 31.6142C77.4462 31.5737 77.4649 31.5323 77.4825 31.4909C77.5963 31.2346 77.6952 30.972 77.7789 30.7044C77.8358 30.5237 77.8859 30.3408 77.9291 30.1563C77.9426 30.0972 77.956 30.0371 77.9685 29.9781C77.9716 29.9605 77.9747 29.9439 77.9778 29.9273C77.9892 29.8745 77.9996 29.8206 78.0078 29.7677L78.0141 29.7377C78.0255 29.6683 78.0369 29.5978 78.0472 29.5274C78.098 29.1751 78.1239 28.8145 78.1239 28.4487C78.1239 24.2876 74.7502 20.9139 70.588 20.9139ZM72.6116 29.4994C72.2313 30.2299 71.4687 30.7283 70.588 30.7283C69.7083 30.7283 68.9447 30.2299 68.5654 29.4994C68.3962 29.175 68.3081 28.8146 68.3085 28.4487C68.3085 27.1898 69.3291 26.1692 70.588 26.1692C71.8469 26.1692 72.8675 27.1898 72.8675 28.4487C72.8675 28.828 72.7753 29.1854 72.6116 29.4994Z" fill="white"/>
<path d="M87.4233 22.3334L86.1416 11.9294C86.0981 11.574 85.9996 11.23 85.8484 10.9078C85.6981 10.5835 85.4971 10.2861 85.2515 10.025L85.0215 9.77942H84.9873L78.9041 3.27448C77.0732 1.3172 74.486 0.195054 71.8106 0.195054L42.756 0.0976562C40.7407 0.0976562 38.7565 0.636454 37.0178 1.65602L23.2319 9.74004L23.2505 9.77113L8.77868 10.7938C6.41626 10.9606 4.2331 12.0144 2.63018 13.7624C1.60232 14.8845 0.862511 16.2543 0.490534 17.7236C0.312091 18.4291 0.217494 19.1531 0.208703 19.8808L0.143425 25.3714C0.127883 26.6593 0.617981 27.8726 1.52254 28.7886C2.42813 29.7045 3.63524 30.2091 4.92317 30.2091H9.09574C8.98914 29.6974 8.92743 29.1774 8.91131 28.6549C8.9082 28.5575 8.90613 28.4591 8.90613 28.3606C8.90613 23.3488 12.9834 19.2716 17.9952 19.2716C23.0071 19.2716 27.0843 23.3488 27.0843 28.3606C27.0843 28.4601 27.0822 28.5596 27.0791 28.6591C27.0708 28.9181 27.0511 29.1782 27.0201 29.4362C27.0128 29.5077 27.0035 29.5792 26.9931 29.6506C26.9662 29.8392 26.9341 30.0268 26.8947 30.2122L61.6885 30.2941C61.6502 30.1117 61.6181 29.9273 61.5922 29.7429C61.5808 29.6672 61.5714 29.5916 61.5631 29.5159C61.531 29.259 61.5113 28.9989 61.5041 28.7388C61.4999 28.6425 61.4989 28.5451 61.4989 28.4487C61.4989 24.3414 64.2374 20.861 67.9852 19.7399C68.4919 19.5876 69.0182 19.4788 69.5581 19.4187C69.8958 19.3793 70.2398 19.3596 70.588 19.3596C75.5211 19.3596 79.5496 23.3094 79.675 28.2135V28.2145C79.682 28.4871 79.6769 28.7599 79.6595 29.0321C79.6444 29.272 79.6199 29.5111 79.5859 29.7491L79.5672 29.8734L83.8331 28.5617L83.8569 28.5544C86.2659 27.7307 87.7652 25.1144 87.4233 22.3334ZM5.53657 23.1654H2.26753V21.6112H5.53657V23.1654ZM9.14029 16.3144L8.65538 16.9931C8.36024 17.4062 7.97077 17.7429 7.51933 17.9752C7.06789 18.2075 6.56753 18.3287 6.05983 18.3287H2.55454C2.84466 17.1817 3.41662 16.1434 4.19373 15.2948H8.616C9.14029 15.2948 9.44492 15.8875 9.14029 16.3144ZM47.1814 14.8503H42.898V13.2961H47.1814V14.8503ZM49.4154 9.73383L29.4591 9.69238L38.5907 4.33757C39.8527 3.59776 41.293 3.2061 42.7509 3.2061L49.6464 3.22889C49.5936 5.19654 49.5117 7.40768 49.4154 9.73383ZM66.918 14.8503H62.649V13.2961H66.918V14.8503ZM52.5269 9.74004C52.6222 7.41804 52.703 5.20897 52.7559 3.23926L64.1483 3.27759L68.4038 9.77216L52.5269 9.74004ZM72.1256 9.77942L67.8733 3.29003L71.8055 3.3035C73.628 3.3035 75.3885 4.06714 76.6329 5.39859L80.7298 9.77942H72.1256ZM83.0041 18.6188C82.483 18.5981 82.0094 18.3131 81.7463 17.8624L80.9847 16.56C80.6365 15.9652 81.0655 15.2171 81.7545 15.2171H84.6008L85.0308 18.7006L83.0041 18.6188Z" fill="white"/>
<path d="M17.9952 20.8257C13.834 20.8257 10.4603 24.1994 10.4603 28.3606C10.4604 28.8345 10.5052 29.3073 10.594 29.7729C10.6013 29.8153 10.6095 29.8568 10.6189 29.8993C10.6199 29.9055 10.6209 29.9127 10.623 29.9189C10.6334 29.9676 10.6437 30.0163 10.6551 30.065C10.6655 30.1137 10.6779 30.1614 10.6893 30.2091L10.6955 30.2308C10.7101 30.2878 10.7246 30.3448 10.7411 30.4018C10.795 30.5966 10.8582 30.7883 10.9276 30.9758C10.9432 31.0183 10.9587 31.0608 10.9753 31.1022C11.0364 31.2576 11.1017 31.411 11.1732 31.5612C11.1919 31.6027 11.2116 31.6441 11.2323 31.6856C11.2571 31.7353 11.282 31.785 11.3079 31.8348C12.5637 34.248 15.0867 35.8954 17.9952 35.8954C20.9161 35.8954 23.4474 34.2345 24.6991 31.8058C24.7146 31.7757 24.7302 31.7446 24.7447 31.7125C24.7664 31.669 24.7882 31.6244 24.8089 31.5799C24.8276 31.5416 24.8452 31.5032 24.8628 31.4649C24.869 31.4514 24.8752 31.4379 24.8804 31.4245C24.898 31.3861 24.9146 31.3488 24.9301 31.3105C24.9726 31.211 25.013 31.1116 25.0514 31.01C25.0659 30.9717 25.0794 30.9333 25.0928 30.895C25.1291 30.7945 25.1633 30.693 25.1954 30.5893C25.214 30.5282 25.2317 30.4671 25.2493 30.4049C25.2669 30.3396 25.2845 30.2743 25.3011 30.2091C25.328 30.1013 25.3529 29.9925 25.3757 29.8827C25.3767 29.8796 25.3778 29.8754 25.3778 29.8723C25.3861 29.8329 25.3943 29.7936 25.4006 29.7542C25.4088 29.7127 25.4171 29.6703 25.4233 29.6288C25.4347 29.5635 25.4451 29.4983 25.4544 29.432C25.5042 29.0817 25.5301 28.7243 25.5301 28.3606C25.5301 24.1994 22.1574 20.8257 17.9952 20.8257ZM20.0188 29.4123C19.6385 30.1417 18.8759 30.6401 17.9952 30.6401C17.1155 30.6401 16.3519 30.1417 15.9726 29.4123C15.8031 29.0877 15.7149 28.7268 15.7157 28.3606C15.7157 27.1017 16.7363 26.0811 17.9952 26.0811C19.2541 26.0811 20.2747 27.1017 20.2747 28.3606C20.2747 28.7398 20.1825 29.0973 20.0188 29.4123Z" fill="white"/>
</svg>
