<svg width="155" height="83" viewBox="0 0 155 83" fill="none" xmlns="http://www.w3.org/2000/svg">
<path d="M49.0944 72.5864H46.0071L46.2632 71.3607H53.9032L53.6471 72.5864H50.5598L48.7103 81.3232H47.2449L49.0944 72.5864Z" fill="#E4E5E7"/>
<path d="M57.0604 81.537C55.9697 81.537 55.1302 81.2805 54.5422 80.7674C53.9636 80.2448 53.6743 79.5274 53.6743 78.6152C53.6743 78.3207 53.7123 77.9834 53.7882 77.6033L55.1113 71.3607H56.5625L55.2251 77.6603C55.1587 77.9549 55.1255 78.2399 55.1255 78.5155C55.1255 79.1046 55.3057 79.5369 55.6661 79.8125C56.036 80.088 56.5957 80.2258 57.3449 80.2258C58.1606 80.2258 58.8483 80.012 59.4079 79.5844C59.977 79.1474 60.3516 78.506 60.5318 77.6603L61.8692 71.3607H63.3204L61.9972 77.6033C61.4471 80.2258 59.8015 81.537 57.0604 81.537Z" fill="#E4E5E7"/>
<path d="M65.1025 71.3607H66.4826L69.954 78.8718L70.7507 75.1163L71.5474 71.3607H73.0128L70.9072 81.3232H69.5129L66.0415 73.8122L64.4481 81.3232H62.9969L65.1025 71.3607Z" fill="#E4E5E7"/>
<path d="M74.8559 71.3607H76.3213L74.2157 81.3232H72.7503L74.8559 71.3607Z" fill="#E4E5E7"/>
<path d="M78.1765 71.3607H79.5565L83.028 78.8718L84.6214 71.3607H86.0868L83.9812 81.3232H82.5869L79.1155 73.8122L77.522 81.3232H76.0709L78.1765 71.3607Z" fill="#E4E5E7"/>
<path d="M90.7469 81.537C89.9027 81.537 89.1534 81.3802 88.499 81.0667C87.854 80.7436 87.3513 80.2828 86.9909 79.6842C86.6305 79.0856 86.4503 78.3872 86.4503 77.5891C86.4503 77.1805 86.4977 76.7672 86.5925 76.3491C86.8107 75.3134 87.2233 74.4013 87.8303 73.6126C88.4468 72.824 89.1961 72.2159 90.0782 71.7883C90.9697 71.3607 91.9277 71.1469 92.9521 71.1469C93.6539 71.1469 94.2657 71.2324 94.7874 71.4035C95.3185 71.565 95.7785 71.8216 96.1674 72.1731L95.8686 73.5699C95.5082 73.1993 95.0814 72.9285 94.5882 72.7575C94.1045 72.5769 93.5069 72.4867 92.7956 72.4867C92.0463 72.4867 91.3397 72.6434 90.6757 72.957C90.0118 73.2706 89.4474 73.7219 88.9827 74.311C88.5274 74.8906 88.2192 75.57 88.0579 76.3491C87.9726 76.7482 87.9299 77.1187 87.9299 77.4608C87.9299 78.3349 88.2002 79.0143 88.7408 79.4989C89.2815 79.9835 90.0687 80.2258 91.1025 80.2258C91.5388 80.2258 91.9514 80.183 92.3403 80.0975C92.7292 80.0025 93.0611 79.8695 93.3362 79.6984L93.891 77.0902H91.9988L92.2407 75.9073H95.5841L94.6166 80.4681C93.6113 81.1807 92.3213 81.537 90.7469 81.537Z" fill="#E4E5E7"/>
<path d="M96.7482 76.4916H101.287L101.031 77.6746H96.4921L96.7482 76.4916Z" fill="#E4E5E7"/>
<path d="M106.752 81.537C105.946 81.537 105.216 81.3755 104.561 81.0524C103.916 80.7199 103.404 80.2543 103.025 79.6557C102.655 79.0476 102.47 78.3397 102.47 77.5321C102.47 77.152 102.513 76.7577 102.598 76.3491C102.816 75.3039 103.219 74.3918 103.807 73.6126C104.405 72.824 105.145 72.2159 106.027 71.7883C106.909 71.3607 107.886 71.1469 108.958 71.1469C110.323 71.1469 111.395 71.4937 112.173 72.1874L111.874 73.5841C111.201 72.8525 110.176 72.4867 108.801 72.4867C107.587 72.4867 106.553 72.8335 105.7 73.5271C104.855 74.2207 104.31 75.1614 104.063 76.3491C103.988 76.6817 103.95 77.0332 103.95 77.4038C103.95 78.2969 104.225 78.9906 104.775 79.4847C105.334 79.9787 106.131 80.2258 107.165 80.2258C107.867 80.2258 108.512 80.1355 109.1 79.955C109.697 79.765 110.276 79.4657 110.836 79.0571L110.537 80.4681C109.531 81.1807 108.27 81.537 106.752 81.537Z" fill="#E4E5E7"/>
<path d="M114.036 71.3607H120.595L120.339 72.5864H115.231L114.563 75.7362H118.375L118.119 76.9477H114.306L113.638 80.1118H118.745L118.489 81.3232H111.931L112.983 76.342L114.036 71.3607Z" fill="#E4E5E7"/>
<path d="M122.094 71.3607H123.475L126.946 78.8718L128.539 71.3607H130.005L127.899 81.3232H126.505L123.033 73.8122L121.44 81.3232H119.989L122.094 71.3607Z" fill="#E4E5E7"/>
<path d="M134.11 72.5864H131.023L131.279 71.3607H138.919L138.663 72.5864H135.575L133.726 81.3232H132.26L134.11 72.5864Z" fill="#E4E5E7"/>
<path d="M140.198 71.3607H146.757L146.501 72.5864H141.393L140.724 75.7362H144.537L144.281 76.9477H140.468L139.8 80.1118H144.907L144.651 81.3232H138.092L140.198 71.3607Z" fill="#E4E5E7"/>
<path d="M148.256 71.3607H152.254C153.117 71.3607 153.791 71.565 154.274 71.9736C154.758 72.3726 155 72.9285 155 73.6411C155 73.8787 154.972 74.1257 154.915 74.3823C154.753 75.1329 154.431 75.76 153.947 76.2636C153.473 76.7672 152.847 77.1045 152.069 77.2755L153.407 81.3232H151.898L150.604 77.3895H148.427L147.602 81.3232H146.151L147.204 76.342L148.256 71.3607ZM150.988 76.1638C151.623 76.1638 152.159 76.0165 152.596 75.722C153.041 75.4179 153.326 74.9714 153.449 74.3823C153.497 74.1827 153.52 73.9737 153.52 73.7551C153.52 73.3276 153.383 73.0283 153.108 72.8572C152.842 72.6767 152.43 72.5864 151.87 72.5864H149.451L148.683 76.1638H150.988Z" fill="#E4E5E7"/>
<path d="M0 22.4268H18.7464V29.3518H7.38138V35.9834H18.7464V42.6737H7.38138V49.5401H18.512V56.1717H0V22.4268ZM21.6169 49.5401V56.1717H40.3633V49.5401H21.6169ZM40.3633 29.3518V22.4268H21.3826V29.3518H40.3633ZM30.8729 42.6737V35.9834H21.3826V42.6737H30.8729Z" fill="white"/>
<path d="M48.5845 22.4268H55.9659V49.3054H67.0965V56.1717H48.5845V22.4268ZM70.2014 49.3054V56.1717H88.9478V49.3054H70.2014Z" fill="white"/>
<path d="M95.9676 22.4268H102.646L114.714 33.812V42.6737L103.349 31.934V56.1717H95.9676V22.4268ZM136.331 22.4268H129.711L117.584 33.812V42.6737L128.949 31.934V56.1717H136.331V22.4268Z" fill="white"/>
<path d="M147.442 22.4268H154.824V56.1717H147.442V22.4268Z" fill="white"/>
<path d="M100.263 0H108.213L86.4542 21.798H78.5037L100.263 0Z" fill="#AFFA00"/>
<path d="M38.3329 61.202H46.2834L22.2449 83H14.2945L38.3329 61.202Z" fill="#AFFA00"/>
<path d="M87.7095 0H95.66L73.9008 21.798H65.9503L87.7095 0Z" fill="#AFFA00"/>
<path d="M25.7795 61.202H33.73L9.69157 83H1.7411L25.7795 61.202Z" fill="#AFFA00"/>
</svg>
