<svg width="32" height="33" viewBox="0 0 32 33" fill="none" xmlns="http://www.w3.org/2000/svg">
<path fill-rule="evenodd" clip-rule="evenodd" d="M28.8622 26.0181C30.834 23.3583 32 20.0653 32 16.5C32 7.66338 24.8365 0.5 16 0.5C7.16338 0.5 0 7.66338 0 16.5C0 25.3365 7.16338 32.5 16 32.5C20.6361 32.5 24.8116 30.5282 27.734 27.3774C28.1346 26.9453 28.5113 26.4915 28.8622 26.0181ZM27.9751 24.5C29.5067 22.2118 30.3999 19.4602 30.3999 16.5C30.3999 8.54711 23.9529 2.09997 15.9998 2.09997C8.04711 2.09997 1.59997 8.54711 1.59997 16.5C1.59997 19.4603 2.49315 22.2118 4.0249 24.5C5.95732 21.6131 8.90602 19.4639 12.3592 18.5643C10.6919 17.4089 9.59997 15.482 9.59997 13.2999C9.59997 9.76532 12.4654 6.89986 16 6.89986C19.5346 6.89986 22.4 9.76532 22.4 13.2999C22.4 15.4819 21.3079 17.4089 19.6408 18.5641C23.0938 19.4639 26.0427 21.6129 27.9751 24.5ZM26.9445 25.8587C24.699 22.1662 20.6376 19.6999 16.0002 19.6999C11.3625 19.6999 7.30099 22.1662 5.05553 25.8589C7.69659 28.9445 11.6198 30.9 16 30.9C20.3802 30.9 24.3034 28.9443 26.9445 25.8587ZM16 18.1C18.651 18.1 20.8001 15.9511 20.8001 13.2999C20.8001 10.6489 18.6512 8.49983 16 8.49983C13.3488 8.49983 11.1999 10.649 11.1999 13.3001C11.1999 15.9511 13.349 18.1 16 18.1Z" fill="white"/>
</svg>
