<svg width="106" height="105" viewBox="0 0 106 105" fill="none" xmlns="http://www.w3.org/2000/svg">
<path d="M69.8437 14.7153L70.7494 17.1347L71.655 14.7153C72.0332 13.705 72.6237 12.7875 73.3868 12.0248C74.1498 11.2622 75.0676 10.6721 76.0781 10.2944L78.4844 9.38875L76.0781 8.48313C75.0683 8.10441 74.1514 7.51365 73.3892 6.75066C72.6269 5.98768 72.0371 5.07018 71.6594 4.06L70.7537 1.64062L69.8437 4.06C69.466 5.07018 68.8762 5.98768 68.1139 6.75066C67.3517 7.51365 66.4348 8.10441 65.425 8.48313L63.0056 9.38875L65.425 10.2944C66.4347 10.6726 67.3516 11.2629 68.1139 12.0256C68.8761 12.7882 69.466 13.7054 69.8437 14.7153ZM86.6372 23.6119L87.3219 25.445L88 23.6119C88.2864 22.8455 88.734 22.1495 89.3125 21.571C89.891 20.9924 90.587 20.5448 91.3534 20.2584L93.1865 19.5716L91.3534 18.8847C90.587 18.5983 89.891 18.1507 89.3125 17.5722C88.734 16.9936 88.2864 16.2977 88 15.5312L87.3131 13.6981L86.6284 15.5312C86.3414 16.2973 85.8936 16.993 85.3151 17.5714C84.7367 18.1499 84.041 18.5977 83.275 18.8847L81.4397 19.5716L83.275 20.2584C84.0426 20.5444 84.74 20.9917 85.32 21.5702C85.9 22.1488 86.3492 22.845 86.6372 23.6119ZM96.8856 13.4269L97.5703 15.2622L98.2572 13.4269C98.5442 12.6608 98.992 11.9652 99.5705 11.3867C100.149 10.8083 100.845 10.3605 101.611 10.0734L103.444 9.38875L101.611 8.70187C100.844 8.41548 100.148 7.96789 99.5697 7.38936C98.9912 6.81083 98.5436 6.11484 98.2572 5.34844L97.5703 3.51531L96.8856 5.34844C96.5986 6.11448 96.1508 6.81014 95.5723 7.38859C94.9939 7.96704 94.2982 8.41485 93.5322 8.70187L91.6969 9.38875L93.5322 10.0734C94.2978 10.3612 94.9931 10.8093 95.5714 11.3876C96.1498 11.966 96.5978 12.6613 96.8856 13.4269ZM87.7397 96.5847V101.141C87.7397 101.433 87.7974 101.723 87.9096 101.993C88.0217 102.262 88.1861 102.507 88.3932 102.714C88.6003 102.92 88.8462 103.083 89.1165 103.194C89.3869 103.305 89.6765 103.361 89.9687 103.359H98.5C99.0883 103.359 99.6525 103.126 100.068 102.71C100.484 102.294 100.718 101.73 100.718 101.141V92.3584C99.3099 93.7733 97.6228 94.8797 95.7639 95.6073C93.905 96.3349 91.9151 96.6677 89.9206 96.5847H87.7397ZM5.16373 92.2294V101.141C5.16373 101.73 5.39743 102.294 5.81341 102.71C6.22939 103.126 6.79357 103.359 7.38186 103.359H15.9131C16.5014 103.359 17.0656 103.126 17.4816 102.71C17.8975 102.294 18.1312 101.73 18.1312 101.141V96.5847H16.0859C14.061 96.672 12.0405 96.329 10.1578 95.5783C8.27509 94.8275 6.57298 93.6861 5.16373 92.2294ZM5.22717 83.3437C5.22717 89.6306 9.60217 93.2947 16.0859 93.2947H89.9162C96.3912 93.2947 100.775 89.6306 100.775 83.3437V81.5281H5.22717V83.3437ZM101.781 42.875L96.3125 41.9256C95.8757 41.8494 95.4259 41.9228 95.0361 42.134C94.6462 42.3452 94.3391 42.6818 94.1644 43.0894L92.4625 46.9372L91.7712 45.8828L86.9762 34.5625C86.2028 32.7261 84.9747 31.1167 83.4076 29.8859C81.8405 28.6552 79.9859 27.8436 78.0184 27.5275C69.739 26.2704 61.3742 25.6598 53 25.7009C44.6263 25.6618 36.2623 26.2747 27.9837 27.5341C26.0144 27.8486 24.1576 28.6595 22.5885 29.8903C21.0193 31.1211 19.7895 32.7313 19.015 34.5691L14.2309 45.8719L13.5506 46.9109L11.8378 43.0784C11.6631 42.6709 11.3559 42.3343 10.9661 42.1231C10.5762 41.9118 10.1265 41.8384 9.68967 41.9147L4.21873 42.875C3.71334 42.9567 3.25361 43.2158 2.92205 43.6059C2.5905 43.996 2.40884 44.4915 2.40967 45.0034V46.0775C2.40977 46.5704 2.57838 47.0485 2.88753 47.4325C3.19668 47.8164 3.62779 48.0832 4.10936 48.1884L11.5994 49.9013L8.01186 55.37C6.19628 58.1388 5.22917 61.3778 5.22936 64.6888V78.2512H100.775V64.6888C100.774 61.3775 99.8065 58.1386 97.9903 55.37L94.3897 49.875L101.893 48.1841C102.374 48.0788 102.805 47.8121 103.115 47.4281C103.424 47.0442 103.592 46.5661 103.592 46.0731V44.9991C103.592 44.4875 103.41 43.9928 103.078 43.6036C102.746 43.2144 102.286 42.9561 101.781 42.875ZM22.0447 35.8509C22.5974 34.5237 23.4809 33.3602 24.6109 32.4714C25.741 31.5826 27.0799 30.9981 28.5 30.7737C36.6079 29.5431 44.7992 28.9442 53 28.9822C61.2007 28.9442 69.392 29.5431 77.5 30.7737C78.919 30.9988 80.2568 31.5833 81.3859 32.4717C82.5151 33.36 83.3981 34.5226 83.9509 35.8488L87.6369 44.5419H18.3587L22.0447 35.8509ZM15.0862 67.5697C14.4432 67.476 13.8431 67.1912 13.3637 66.7525C12.8844 66.3137 12.5479 65.741 12.3978 65.1087C12.2 64.3713 12.1225 63.6068 12.1681 62.8447C12.3453 60.8759 12.9644 59.9069 14.2156 59.9069C14.2156 59.9069 22.795 60.4406 23.9544 60.7972C25.1137 61.1537 29.5631 69.6128 29.5631 69.6128L15.0862 67.5697ZM70.045 70.8509L52.895 71.8309L35.955 70.875L31.6347 61.7116C31.6347 61.7116 46.8531 63.0372 52.9978 63.0372C59.1425 63.0372 74.3653 61.7116 74.3653 61.7116L70.045 70.8509ZM93.6 65.1175C93.4499 65.7498 93.1134 66.3224 92.634 66.7612C92.1547 67.2 91.5546 67.4847 90.9116 67.5784L76.4347 69.6216C76.4347 69.6216 80.8862 61.1625 82.0456 60.8059C83.205 60.4494 91.7822 59.9156 91.7822 59.9156C93.0356 59.9156 93.6525 60.8934 93.8297 62.8534C93.8753 63.6156 93.7977 64.3801 93.6 65.1175Z" fill="white"/>
</svg>
