<svg width="106" height="105" viewBox="0 0 106 105" fill="none" xmlns="http://www.w3.org/2000/svg">
<g clip-path="url(#clip0_366_14134)">
<path d="M32.4921 91.3828C31.8358 90.8906 31.0155 90.3984 30.3593 90.0703C30.5233 88.7578 30.3593 87.2812 30.0311 85.8047C29.3749 83.3437 28.0624 81.0469 26.2577 78.9141C24.6171 80.2266 23.7968 82.5234 24.1249 84.9844C22.9764 83.8359 21.828 82.6875 20.8436 81.5391C21.4999 80.3906 21.828 78.9141 21.828 77.4375C21.9921 74.9766 21.4999 72.5156 20.3514 70.0547C18.2186 70.875 16.9061 73.0078 16.578 75.4687C15.7577 74.1562 15.1014 72.6797 14.4452 71.3672C15.4296 70.3828 16.2499 69.0703 16.7421 67.5937C17.5624 65.2969 17.7264 62.8359 17.2343 60.2109C14.9374 60.5391 12.9686 62.1797 11.9843 64.6406C11.4921 63 11.1639 61.5234 10.9999 59.8828C12.3124 59.2266 13.4608 58.0781 14.2811 56.7656C15.5936 54.7969 16.578 52.3359 16.7421 49.7109C14.2811 49.3828 11.8202 50.6953 10.3436 52.9922C10.3436 51.3516 10.5077 49.5469 10.6718 47.9063C12.1483 47.5781 13.6249 46.7578 14.9374 45.7734C16.7421 44.2969 18.2186 42.1641 19.203 39.7031C16.9061 38.7188 14.1171 39.375 11.9843 41.3438C12.4764 39.7031 12.9686 37.8984 13.6249 36.2578C15.2655 36.4219 16.9061 35.9297 18.3827 35.2734C20.5155 34.2891 22.4843 32.6484 24.1249 30.3516C22.1561 28.7109 19.203 28.7109 16.578 30.1875C17.5624 28.5469 18.5468 27.0703 19.6952 25.5938C21.1718 26.25 22.9764 26.25 24.7811 25.9219C27.2421 25.4297 29.703 24.4453 31.9999 22.6406C30.5233 20.5078 27.5702 19.6875 24.453 20.5078C26.7499 18.375 29.2108 16.4062 32.1639 14.7656C32.9843 14.2734 33.3124 13.2891 32.8202 12.4687C32.328 11.6484 31.1796 11.3203 30.3593 11.8125C27.2421 13.6172 24.453 15.75 21.9921 18.0469C23.3046 14.7656 23.4686 11.8125 21.9921 9.51563C19.0389 11.4844 16.9061 14.7656 16.4139 17.5547C15.9218 19.6875 16.2499 21.4922 17.2343 22.9688C15.9218 24.6094 14.7733 26.4141 13.7889 28.0547C14.1171 24.6094 13.2968 21.6562 11.328 20.0156C9.03113 23.1328 8.04676 26.7422 8.37488 29.5313C8.53894 31.6641 9.35926 33.3047 10.6718 34.4531C9.85144 36.4219 9.19519 38.2266 8.70301 40.1953C8.04676 36.9141 6.57019 34.2891 4.10926 33.1406C2.79676 36.75 2.79676 40.3594 3.78113 42.9844C4.60144 44.9531 5.74988 46.2656 7.39051 47.0859C7.06238 49.0547 7.06238 51.0234 7.06238 52.9922C5.58582 50.0391 3.45301 48.0703 0.828006 47.7422C0.499881 51.5156 1.48426 54.9609 3.12488 57.2578C4.27332 58.8984 5.91394 59.8828 7.55457 60.2109C7.71863 62.1797 8.21082 63.9844 8.53894 65.7891C6.40613 63.4922 3.94519 62.1797 1.32019 62.5078C1.97644 66.2812 3.78113 69.3984 6.07801 71.0391C7.55457 72.3516 9.35926 72.8437 10.8358 72.6797C11.4921 74.3203 12.3124 76.125 13.1327 77.6016C10.3436 76.4531 7.71863 75.7969 5.42176 76.7812C7.06238 80.2266 9.68738 82.8516 12.3124 84C14.1171 84.8203 15.7577 84.8203 17.2343 84.4922C18.3827 85.9687 19.5311 87.2812 20.8436 88.5937C18.0546 87.9375 15.5936 88.1016 13.7889 89.5781C16.4139 92.5312 19.8593 94.3359 22.8124 94.8281C24.6171 95.1562 26.2577 94.8281 27.5702 94.1719C28.2264 94.6641 29.0468 95.1562 29.703 95.6484C31.0155 96.4687 32.6561 95.9766 33.3124 94.6641C33.9686 93.5156 33.6405 92.0391 32.4921 91.3828ZM97.7889 65.7891C98.2811 63.9844 98.6093 62.0156 98.7733 60.2109C100.414 59.8828 101.891 58.8984 103.203 57.2578C104.844 54.9609 105.828 51.5156 105.5 47.7422C102.875 48.0703 100.742 50.2031 99.2655 52.9922C99.2655 51.0234 99.1014 49.0547 98.9374 47.0859C100.414 46.4297 101.726 44.9531 102.547 42.9844C103.531 40.3594 103.695 36.75 102.219 33.1406C99.7577 34.2891 98.2811 36.9141 97.6249 40.1953C97.1327 38.2266 96.4764 36.2578 95.6561 34.4531C96.9686 33.3047 97.7889 31.6641 97.953 29.5313C98.2811 26.7422 97.2968 23.1328 94.9999 20.0156C92.8671 21.6562 92.2108 24.7734 92.5389 28.0547C91.2264 26.25 90.078 24.6094 88.7655 22.9688C89.7499 21.6563 90.078 19.6875 89.5858 17.5547C89.0936 14.7656 86.9608 11.4844 83.6796 8.85938C82.203 10.9922 82.3671 14.1094 83.6796 17.3906C81.2186 15.0938 78.4296 12.9609 75.3124 11.1563C74.4921 10.6641 73.3436 10.9922 72.8514 11.8125C72.3593 12.6328 72.6874 13.6172 73.5077 14.1094C76.2968 15.75 78.9218 17.7188 81.2186 19.8516C78.1014 19.0313 75.1483 19.8516 73.6718 21.9844C75.9686 23.7891 78.4296 24.7734 80.8905 25.2656C82.6952 25.5938 84.4999 25.5937 85.9764 24.9375C87.1249 26.4141 88.2733 28.0547 89.0936 29.5313C86.4686 28.0547 83.5155 28.0547 81.5468 29.6953C83.1874 31.8281 85.1561 33.6328 87.2889 34.6172C88.9296 35.4375 90.5702 35.7656 92.0468 35.6016C92.703 37.2422 93.1952 38.8828 93.6874 40.6875C91.5546 38.7187 88.7655 38.0625 86.4686 39.0469C87.453 41.5078 88.9296 43.6406 90.7343 45.1172C92.0468 46.2656 93.5233 46.9219 94.9999 47.25C95.1639 48.8906 95.328 50.6953 95.328 52.3359C93.8514 50.0391 91.3905 48.7266 88.9296 49.0547C89.2577 51.6797 90.078 54.1406 91.3905 56.1094C92.2108 57.4219 93.3593 58.5703 94.6718 59.2266C94.3436 60.8672 94.0155 62.3437 93.6874 63.9844C92.703 61.5234 90.8983 59.7187 88.4374 59.5547C87.9452 62.1797 88.2733 64.8047 88.9296 66.9375C89.4218 68.4141 90.078 69.7266 91.2264 70.7109C90.5702 72.1875 89.9139 73.5 89.0936 74.8125C88.7655 72.3516 87.453 70.2187 85.3202 69.3984C84.1718 71.8594 83.6796 74.3203 83.8436 76.7812C83.8436 78.2578 84.1718 79.7344 84.828 80.8828C83.8436 82.0312 82.6952 83.1797 81.5468 84.3281C81.8749 81.8672 81.2186 79.5703 79.4139 78.2578C77.6093 80.3906 76.2968 82.6875 75.6405 85.1484C75.3124 86.625 75.1483 88.1016 75.3124 89.4141C74.6561 89.9062 73.9999 90.3984 73.1796 90.7266C72.0311 91.3828 71.703 92.8594 72.1952 94.0078C72.8514 95.3203 74.4921 95.8125 75.8046 94.9922C76.6249 94.5 77.2811 94.0078 77.9374 93.5156C79.2499 94.1719 80.8905 94.5 82.6952 94.1719C85.6483 93.6797 89.0936 91.875 91.7186 88.9219C89.9139 87.4453 87.453 87.2812 84.6639 87.9375C85.9764 86.625 87.1249 85.3125 88.2733 83.8359C89.7499 84.1641 91.3905 84 93.1952 83.3437C95.8202 82.1953 98.4452 79.7344 100.086 76.125C97.7889 75.1406 95.1639 75.7969 92.703 77.2734C93.5233 75.6328 94.3436 73.9922 94.9999 72.3516C96.6405 72.3516 98.2811 71.8594 99.7577 70.7109C101.891 68.9062 103.859 65.9531 104.516 62.1797C102.383 62.1797 99.9218 63.6562 97.7889 65.7891Z" fill="white"/>
<path d="M73.1797 80.8828L69.7344 61.0313L84.1719 46.9219C84.6641 46.4297 84.8281 45.7734 84.6641 45.2813C84.5 44.625 84.0078 44.2969 83.3516 44.1328L63.3359 41.1797L54.4766 23.1328C54.1484 22.6406 53.6562 22.1484 53 22.1484C52.3437 22.1484 51.8516 22.4766 51.5234 23.1328L42.6641 41.1797L22.6484 44.1328C21.9922 44.2969 21.5 44.625 21.3359 45.2813C21.1719 45.9375 21.3359 46.5938 21.8281 46.9219L36.2656 61.0313L32.8203 80.8828C32.6563 81.5391 32.9844 82.1953 33.4766 82.5234C33.9688 82.8516 34.625 83.0156 35.2813 82.6875L53 73.1719L70.8828 82.5234C71.0469 82.6875 71.375 82.6875 71.7031 82.6875C72.0313 82.6875 72.3594 82.5234 72.6875 82.3594C73.0156 82.0313 73.3437 81.5391 73.1797 80.8828Z" fill="white"/>
</g>
<defs>
<clipPath id="clip0_366_14134">
<rect width="105" height="105" fill="white" transform="translate(0.5)"/>
</clipPath>
</defs>
</svg>
