<svg width="105" height="105" viewBox="0 0 105 105" fill="none" xmlns="http://www.w3.org/2000/svg">
<path d="M45.7685 75.6271C44.603 74.4605 43.2009 73.5575 41.6567 72.9791C44.9519 68.5603 44.4242 61.8569 40.4338 58.0154L40.3308 57.9126C36.9253 54.5073 31.9122 53.6671 27.7122 55.39C27.1702 53.5629 26.1796 51.8887 24.7943 50.5034L24.6899 50.3992C20.3735 45.9006 12.6033 45.901 8.28657 50.4006L7.99556 50.6916L7.3914 50.0875C-2.46383 40.2322 -2.46383 24.1964 7.3916 14.3407C17.247 4.48528 33.2829 4.48549 43.1386 14.3407L49.0329 20.2353L37.8492 31.1007C32.8637 35.7244 32.795 44.2366 37.7075 48.9425C42.3671 53.7988 50.7507 53.7986 55.4098 48.9425L59.2653 45.0871C59.3239 45.0291 59.4029 44.9965 59.4853 44.9965C59.5678 44.9965 59.6468 45.0291 59.7054 45.0871L82.8085 68.1897L82.8234 68.2047L83.6433 69.0246C85.1699 70.4895 85.1697 73.1249 83.6433 74.5898C82.1094 76.1236 79.6127 76.1238 78.0786 74.5896C78.0347 74.5457 77.9877 74.5074 77.9422 74.4663C77.8591 74.378 77.7777 74.2887 77.6914 74.2024L71.16 67.6711C69.7983 66.3094 67.59 66.3094 66.2283 67.6711C64.8664 69.0328 64.8664 71.2411 66.2283 72.6028L72.7596 79.1341C74.4985 80.8026 74.4985 83.805 72.7596 85.4735C71.0909 87.2126 68.089 87.2126 66.4203 85.4735L59.9234 78.9766C58.5617 77.6149 56.3534 77.6149 54.9917 78.9766C53.6297 80.3383 53.6297 82.5466 54.9917 83.9083L61.4537 90.3704C63.2278 92.116 63.2504 94.9848 61.4867 96.7462C59.818 98.4853 56.816 98.4853 55.1475 96.7462L47.8677 89.4666C50.3091 85.1076 49.4814 79.2252 45.8712 75.73L45.7685 75.6271Z" fill="white"/>
<path d="M98.0237 15.1412C107.314 24.4321 107.325 39.5426 98.0569 48.8477L85.3482 60.8661L64.637 40.155C61.9252 37.3286 57.0452 37.3288 54.3334 40.155L50.478 44.0105C48.4147 46.1609 44.7024 46.1607 42.6391 44.0105C41.58 42.9515 41.0036 41.543 41.0159 40.0453C41.0282 38.5476 41.6278 37.1492 42.7041 36.1076L64.2479 15.1767C73.5425 5.84216 88.7103 5.82534 98.0237 15.1412ZM18.4934 79.9556L18.3904 79.8528C16.5962 78.1312 16.596 75.0331 18.3904 73.3114L24.794 66.9079L24.7977 66.904L28.8574 62.844C30.6957 60.9996 33.719 61.0527 35.5015 62.947C37.2958 64.6686 37.296 67.7667 35.5015 69.4884L25.0343 79.9556C23.2313 81.7588 20.2968 81.7588 18.4934 79.9556ZM6.91774 68.3795L6.81438 68.2761C5.01154 66.4725 5.01174 63.5386 6.815 61.7352L13.2186 55.3316C14.9402 53.5374 18.0381 53.5372 19.7597 55.3316L19.8641 55.4358C21.6567 57.1558 21.6567 60.2545 19.8633 61.9751L13.4591 68.3795C11.6555 70.1832 8.72099 70.1828 6.91774 68.3795ZM36.7882 91.3542C34.9849 93.1575 32.0503 93.1575 30.247 91.3542L30.1443 91.2513C28.3408 89.448 28.3408 86.5135 30.1443 84.7099L34.2955 80.5585C36.1336 78.714 39.157 78.7671 40.9396 80.6612C42.7338 82.3829 42.734 85.481 40.9396 87.2026L36.7882 91.3542Z" fill="white"/>
</svg>
