<svg width="64" height="64" viewBox="0 0 64 64" fill="none" xmlns="http://www.w3.org/2000/svg">
<mask id="path-1-inside-1_574_16773" fill="white">
<path fill-rule="evenodd" clip-rule="evenodd" d="M33.2373 28.3679C29.0604 32.2111 24.9841 35.8509 24.9841 35.8509C24.8454 35.9692 24.7318 36.114 24.6499 36.2767C24.568 36.4395 24.5194 36.617 24.5071 36.7988C24.4948 36.9806 24.5189 37.163 24.578 37.3354C24.6372 37.5078 24.7302 37.6665 24.8516 37.8024C24.973 37.9383 25.1203 38.0486 25.2849 38.1268C25.4495 38.2049 25.6281 38.2494 25.8101 38.2576C25.9922 38.2658 26.174 38.2375 26.345 38.1744C26.5159 38.1113 26.6725 38.0147 26.8056 37.8902C26.8056 37.8902 37.4854 28.3569 42.0453 23.7971C42.7422 23.1013 42.9511 22.5696 42.9883 22.3475C43.0338 22.1239 43.0223 21.8924 42.9548 21.6745C42.8873 21.4565 42.766 21.259 42.6021 21.1003C42.3427 20.8298 41.9867 20.6733 41.612 20.6649C41.3801 20.6539 40.8637 20.7448 40.169 21.0719C36.1945 22.9426 20.3892 33.4715 20.3892 33.4715C20.2358 33.5692 20.1034 33.6966 19.9998 33.8462C19.8963 33.9958 19.8236 34.1645 19.786 34.3425C19.7485 34.5206 19.7468 34.7043 19.7812 34.883C19.8156 35.0616 19.8852 35.2316 19.9861 35.383C20.087 35.5344 20.2171 35.6642 20.3687 35.7647C20.5204 35.8652 20.6906 35.9344 20.8693 35.9683C21.0481 36.0022 21.2318 36.0001 21.4097 35.9621C21.5876 35.9241 21.7562 35.851 21.9055 35.747C21.9055 35.747 27.7891 31.8239 33.2373 28.3679Z"/>
<path fill-rule="evenodd" clip-rule="evenodd" d="M32 0C14.3382 0 0 14.3382 0 32C0 49.6618 14.3382 64 32 64C49.6618 64 64 49.6618 64 32C64 14.3382 49.6618 0 32 0ZM32 2.73504C48.1521 2.73504 61.265 15.8479 61.265 32C61.265 48.1521 48.1521 61.265 32 61.265C15.8479 61.265 2.73504 48.1521 2.73504 32C2.73504 15.8479 15.8479 2.73504 32 2.73504Z"/>
<path fill-rule="evenodd" clip-rule="evenodd" d="M20.049 35.6923L22.9755 45.2124C22.9864 45.2475 22.9984 45.2825 23.0116 45.3153C23.3234 46.0975 23.6351 46.5515 23.8594 46.767C24.2642 47.1565 24.6788 47.2462 25.0224 47.2375C25.5059 47.2233 26.2849 46.9344 26.5934 45.7879C26.6152 45.7037 26.6306 45.6183 26.6371 45.5319L27.0791 39.4382L38.6396 47.942C39.8277 48.8435 40.8955 49.0349 41.7039 48.7877C42.5387 48.5328 43.3471 47.7681 43.729 46.1402C43.7311 46.1314 43.7344 46.1216 43.7355 46.1117L49.4419 19.2241C49.7811 17.792 49.5907 16.7221 49.1247 16.0974C48.5853 15.3698 47.5646 14.8754 45.8284 15.3447C45.7815 15.3566 45.7354 15.3716 45.6905 15.3895L12.1742 28.3897C12.1228 28.4094 12.0725 28.4335 12.0222 28.4587C10.4347 29.312 10.0814 30.2857 10.0759 30.918C10.0704 31.7681 10.6667 32.5908 11.6786 32.9967C11.7093 33.0087 11.7388 33.0207 11.7705 33.0295L20.049 35.6923ZM46.8699 17.9233C46.8568 18.118 46.8305 18.3828 46.7769 18.6049L46.7681 18.641L41.0639 45.5253C41.0108 45.7198 40.9412 45.9094 40.8561 46.092C40.6576 45.9979 40.468 45.8862 40.2894 45.7584L40.2686 45.7441L26.7039 35.7678C26.5068 35.6234 26.2747 35.5344 26.0316 35.51C25.7885 35.4856 25.5433 35.5267 25.3215 35.6291C25.0996 35.7315 24.9093 35.8914 24.7701 36.0922C24.6309 36.293 24.548 36.5274 24.5301 36.771L24.2839 40.1581L22.4536 34.2066C22.3887 33.9964 22.2741 33.8048 22.1195 33.6483C21.9648 33.4917 21.7747 33.3748 21.5653 33.3074L13.6369 30.7561L46.6018 17.9703C46.6904 17.9503 46.7798 17.9346 46.8699 17.9233Z"/>
<path fill-rule="evenodd" clip-rule="evenodd" d="M25.9195 46.8972L31.8654 41.7619C32.1401 41.5249 32.3093 41.1884 32.3358 40.8266C32.3624 40.4648 32.2442 40.1072 32.0071 39.8326C31.7701 39.558 31.4336 39.3888 31.0718 39.3622C30.71 39.3356 30.3524 39.4539 30.0778 39.6909L24.1329 44.8263C23.9969 44.9436 23.8854 45.0865 23.8047 45.2469C23.7239 45.4073 23.6756 45.5821 23.6624 45.7612C23.6491 45.9403 23.6713 46.1202 23.7277 46.2908C23.784 46.4613 23.8734 46.619 23.9907 46.755C24.108 46.891 24.2509 47.0025 24.4114 47.0833C24.5718 47.164 24.7465 47.2124 24.9256 47.2256C25.1047 47.2388 25.2847 47.2166 25.4552 47.1603C25.6257 47.1039 25.7835 47.0145 25.9195 46.8972Z"/>
</mask>
<path d="M33.2373 28.3679L38.6542 34.255L28.9521 21.6124L33.2373 28.3679ZM24.9841 35.8509L30.1754 41.9378L30.2446 41.8788L30.3124 41.8183L24.9841 35.8509ZM26.8056 37.8902L21.4782 31.9221L21.4088 31.984L21.3409 32.0475L26.8056 37.8902ZM42.0453 23.7971L36.3929 18.1358L36.3884 18.1402L42.0453 23.7971ZM42.9883 22.3475L35.1492 20.7513L35.1213 20.8882L35.0982 21.026L42.9883 22.3475ZM42.6021 21.1003L36.8283 26.6377L36.9306 26.7444L37.0367 26.8472L42.6021 21.1003ZM41.612 20.6649L41.2351 28.656L41.3341 28.6607L41.4333 28.6629L41.612 20.6649ZM40.169 21.0719L43.576 28.3101L43.577 28.3096L40.169 21.0719ZM20.3892 33.4715L24.6885 40.218L24.7569 40.1744L24.8245 40.1294L20.3892 33.4715ZM21.9055 35.747L17.4673 29.091L17.4004 29.1356L17.3344 29.1816L21.9055 35.747ZM20.049 35.6923L27.6958 33.3417L26.47 29.354L22.4986 28.0766L20.049 35.6923ZM22.9755 45.2124L15.3286 47.5631L15.3341 47.5809L15.3396 47.5986L22.9755 45.2124ZM23.0116 45.3153L30.443 42.3531L30.4394 42.3442L23.0116 45.3153ZM23.8594 46.767L29.4062 41.0022L29.4026 40.9988L23.8594 46.767ZM25.0224 47.2375L25.2261 55.2349L25.2418 55.2345L25.2576 55.234L25.0224 47.2375ZM26.5934 45.7879L34.3186 47.8666L34.3277 47.8329L34.3364 47.7991L26.5934 45.7879ZM26.6371 45.5319L34.6142 46.1377L34.6152 46.1242L34.6162 46.1106L26.6371 45.5319ZM27.0791 39.4382L31.8195 32.9939L20.1482 24.4086L19.1001 38.8595L27.0791 39.4382ZM38.6396 47.942L43.4752 41.5689L43.4278 41.5329L43.38 41.4977L38.6396 47.942ZM41.7039 48.7877L39.3675 41.1365L39.3643 41.1374L41.7039 48.7877ZM43.729 46.1402L35.9678 44.1999L35.9537 44.2565L35.9403 44.3134L43.729 46.1402ZM43.7355 46.1117L35.9098 44.4509L35.828 44.8365L35.7845 45.2283L43.7355 46.1117ZM49.4419 19.2241L41.6572 17.3805L41.6357 17.4716L41.6162 17.5632L49.4419 19.2241ZM49.1247 16.0974L42.6981 20.8617L42.7053 20.8715L42.7125 20.8812L49.1247 16.0974ZM45.8284 15.3447L47.7944 23.0994L47.8553 23.0839L47.916 23.0675L45.8284 15.3447ZM45.6905 15.3895L48.5835 22.8481L48.6241 22.8324L48.6645 22.8162L45.6905 15.3895ZM12.1742 28.3897L15.0354 35.8606L15.0513 35.8545L15.0672 35.8483L12.1742 28.3897ZM12.0222 28.4587L8.44445 21.3033L8.33856 21.3562L8.23428 21.4123L12.0222 28.4587ZM10.0759 30.918L2.0762 30.8488L2.07612 30.8577L2.07606 30.8665L10.0759 30.918ZM11.6786 32.9967L8.70059 40.4217L8.72696 40.4323L8.75341 40.4427L11.6786 32.9967ZM11.7705 33.0295L14.2202 25.4138L14.0601 25.3623L13.898 25.3175L11.7705 33.0295ZM46.8699 17.9233L54.8518 18.4614L55.5047 8.77587L45.8729 9.98565L46.8699 17.9233ZM46.7769 18.6049L54.5517 20.4896L54.5535 20.482L46.7769 18.6049ZM46.7681 18.641L38.9933 16.7562L38.9662 16.868L38.9424 16.9805L46.7681 18.641ZM41.0639 45.5253L48.7808 47.6348L48.8418 47.4118L48.8897 47.1858L41.0639 45.5253ZM40.8561 46.092L37.428 53.3203L44.7039 56.771L48.1067 49.4726L40.8561 46.092ZM40.2894 45.7584L44.9471 39.2541L44.8775 39.2042L44.8068 39.1559L40.2894 45.7584ZM40.2686 45.7441L35.5288 52.1888L35.6386 52.2696L35.7512 52.3466L40.2686 45.7441ZM26.7039 35.7678L31.4437 29.3231L31.438 29.3189L31.4322 29.3147L26.7039 35.7678ZM24.5301 36.771L16.5518 36.182L16.5511 36.1911L24.5301 36.771ZM24.2839 40.1581L16.6373 42.5097L32.2629 40.738L24.2839 40.1581ZM22.4536 34.2066L30.1002 31.855L30.0981 31.8482L22.4536 34.2066ZM21.5653 33.3074L24.0171 25.6923L24.0158 25.6919L21.5653 33.3074ZM13.6369 30.7561L10.744 23.2975L-10.297 31.4585L11.1864 38.3715L13.6369 30.7561ZM46.6018 17.9703L44.8362 10.1676L44.2599 10.298L43.7089 10.5117L46.6018 17.9703ZM25.9195 46.8972L31.145 52.9548L31.1485 52.9517L25.9195 46.8972ZM31.8654 41.7619L26.6381 35.706L26.6364 35.7074L31.8654 41.7619ZM32.0071 39.8326L38.0631 34.6052L32.0071 39.8326ZM30.0778 39.6909L24.8504 33.635L24.8482 33.6369L30.0778 39.6909ZM24.1329 44.8263L29.3585 50.8838L29.3625 50.8803L24.1329 44.8263ZM33.2373 28.3679L27.8205 22.4808C25.7579 24.3786 23.7154 26.2306 22.1856 27.6106C21.4216 28.2998 20.7873 28.8697 20.3448 29.2666C20.1236 29.465 19.9504 29.6201 19.8329 29.7252C19.7742 29.7777 19.7294 29.8178 19.6996 29.8445C19.6846 29.8578 19.6734 29.8678 19.6661 29.8744C19.6624 29.8776 19.6597 29.8801 19.658 29.8816C19.6571 29.8824 19.6565 29.8829 19.6561 29.8833C19.6559 29.8834 19.6558 29.8835 19.6558 29.8836C19.6557 29.8836 19.6557 29.8836 19.6557 29.8837C19.6557 29.8836 19.6558 29.8836 24.9841 35.8509C30.3124 41.8183 30.3124 41.8182 30.3125 41.8182C30.3126 41.8181 30.3127 41.818 30.3128 41.8179C30.3129 41.8178 30.3132 41.8176 30.3135 41.8173C30.3141 41.8167 30.315 41.816 30.3161 41.815C30.3183 41.813 30.3215 41.8101 30.3257 41.8064C30.334 41.799 30.3462 41.7881 30.3622 41.7738C30.3941 41.7453 30.4409 41.7034 30.5018 41.6489C30.6236 41.5399 30.8015 41.3806 31.0277 41.1777C31.48 40.7721 32.1259 40.1918 32.903 39.4907C34.4557 38.09 36.5398 36.2004 38.6542 34.255L33.2373 28.3679ZM24.9841 35.8509L19.7927 29.7641C18.843 30.5741 18.0647 31.5657 17.5037 32.6807L24.6499 36.2767L31.7961 39.8728C31.3989 40.6622 30.8479 41.3643 30.1754 41.9378L24.9841 35.8509ZM24.6499 36.2767L17.5037 32.6807C16.9426 33.7957 16.61 35.0116 16.5255 36.257L24.5071 36.7988L32.4887 37.3407C32.4289 38.2224 32.1934 39.0833 31.7961 39.8728L24.6499 36.2767ZM24.5071 36.7988L16.5255 36.257C16.4409 37.5023 16.6061 38.752 17.0114 39.9326L24.578 37.3354L32.1447 34.7382C32.4316 35.5741 32.5486 36.4589 32.4887 37.3407L24.5071 36.7988ZM24.578 37.3354L17.0114 39.9326C17.4166 41.1132 18.0537 42.2009 18.8852 43.1318L24.8516 37.8024L30.818 32.473C31.4067 33.1321 31.8578 33.9023 32.1447 34.7382L24.578 37.3354ZM24.8516 37.8024L18.8852 43.1318C19.7167 44.0627 20.7259 44.8181 21.8535 45.3535L25.2849 38.1268L28.7163 30.9001C29.5147 31.2792 30.2293 31.814 30.818 32.473L24.8516 37.8024ZM25.2849 38.1268L21.8535 45.3535C22.9811 45.8889 24.2044 46.1935 25.4512 46.2495L25.8101 38.2576L26.169 30.2656C27.0518 30.3053 27.9179 30.5209 28.7163 30.9001L25.2849 38.1268ZM25.8101 38.2576L25.4512 46.2495C26.6982 46.3055 27.9438 46.1117 29.1148 45.6796L26.345 38.1744L23.5751 30.6692C24.4043 30.3632 25.2862 30.226 26.169 30.2656L25.8101 38.2576ZM26.345 38.1744L29.1148 45.6796C30.2858 45.2474 31.3587 44.5855 32.2703 43.7329L26.8056 37.8902L21.3409 32.0475C21.9864 31.4438 22.746 30.9752 23.5751 30.6692L26.345 38.1744ZM26.8056 37.8902C32.133 43.8583 32.1331 43.8582 32.1333 43.8581C32.1334 43.858 32.1336 43.8578 32.1338 43.8576C32.1342 43.8572 32.1348 43.8567 32.1356 43.856C32.1371 43.8547 32.1392 43.8528 32.142 43.8503C32.1475 43.8454 32.1557 43.8381 32.1662 43.8287C32.1874 43.8097 32.2185 43.7819 32.2591 43.7457C32.3402 43.6732 32.459 43.5669 32.6114 43.4304C32.9161 43.1573 33.3555 42.7632 33.8966 42.2764C34.9781 41.3032 36.4688 39.9571 38.1048 38.4659C41.3321 35.5241 45.273 31.8831 47.7021 29.4539L42.0453 23.7971L36.3884 18.1402C34.2577 20.2709 30.5788 23.6764 27.3262 26.6412C25.7222 28.1033 24.258 29.4255 23.1946 30.3824C22.6632 30.8605 22.2326 31.2468 21.9355 31.5129C21.7869 31.646 21.6718 31.749 21.5942 31.8183C21.5554 31.853 21.526 31.8793 21.5065 31.8967C21.4968 31.9055 21.4895 31.912 21.4847 31.9162C21.4824 31.9183 21.4806 31.9199 21.4795 31.9209C21.479 31.9213 21.4786 31.9217 21.4784 31.9219C21.4783 31.922 21.4782 31.922 21.4782 31.9221C21.4782 31.9221 21.4782 31.9221 26.8056 37.8902ZM42.0453 23.7971L47.6977 29.4584C49.1419 28.0164 50.4796 26.0501 50.8784 23.669L42.9883 22.3475L35.0982 21.026C35.2793 19.9448 35.6476 19.2185 35.8483 18.8734C36.0899 18.4578 36.3063 18.2222 36.3929 18.1358L42.0453 23.7971ZM42.9883 22.3475L50.8275 23.9436C51.141 22.4036 51.0617 20.8094 50.5968 19.3081L42.9548 21.6745L35.3128 24.0408C34.9829 22.9755 34.9266 21.8442 35.1492 20.7513L42.9883 22.3475ZM42.9548 21.6745L50.5968 19.3081C50.132 17.8069 49.2966 16.4468 48.1675 15.3535L42.6021 21.1003L37.0367 26.8472C36.2355 26.0713 35.6427 25.1061 35.3128 24.0408L42.9548 21.6745ZM42.6021 21.1003L48.3759 15.5629C46.6507 13.764 44.2826 12.7226 41.7908 12.6669L41.612 20.6649L41.4333 28.6629C39.6907 28.6239 38.0347 27.8957 36.8283 26.6377L42.6021 21.1003ZM41.612 20.6649L41.989 12.6738C39.9391 12.5771 38.0622 13.2214 36.761 13.8341L40.169 21.0719L43.577 28.3096C43.4994 28.3462 43.3217 28.4222 43.0339 28.4953C42.8901 28.5318 42.6872 28.5757 42.4297 28.6095C42.2013 28.6396 41.782 28.6818 41.2351 28.656L41.612 20.6649ZM40.169 21.0719L36.7621 13.8336C34.1724 15.0525 28.6818 18.5252 24.4556 21.2483C22.2029 22.6998 20.0799 24.0895 18.5221 25.115C17.7424 25.6282 17.1026 26.0514 16.6568 26.3468C16.4338 26.4946 16.2593 26.6105 16.1399 26.6898C16.0802 26.7295 16.0343 26.76 16.003 26.7808C15.9874 26.7912 15.9754 26.7992 15.9672 26.8047C15.9631 26.8074 15.9599 26.8095 15.9577 26.811C15.9566 26.8117 15.9557 26.8123 15.9551 26.8127C15.9548 26.8129 15.9545 26.8131 15.9543 26.8132C15.9541 26.8134 15.9539 26.8135 20.3892 33.4715C24.8245 40.1294 24.8244 40.1295 24.8244 40.1294C24.8245 40.1294 24.8246 40.1293 24.8247 40.1292C24.8251 40.129 24.8256 40.1286 24.8264 40.1281C24.8281 40.127 24.8306 40.1253 24.8341 40.123C24.8411 40.1183 24.8519 40.1112 24.8663 40.1016C24.8951 40.0824 24.9384 40.0536 24.9954 40.0157C25.1095 39.9399 25.2784 39.8277 25.4954 39.6839C25.9295 39.3963 26.5555 38.9823 27.3197 38.4792C28.8495 37.4721 30.9263 36.1127 33.1217 34.6981C37.7917 31.6891 42.191 28.962 43.576 28.3101L40.169 21.0719ZM20.3892 33.4715L16.0899 26.7249C15.0389 27.3947 14.1321 28.2674 13.4227 29.292L19.9998 33.8462L26.577 38.4004C26.0747 39.1258 25.4327 39.7438 24.6885 40.218L20.3892 33.4715ZM19.9998 33.8462L13.4227 29.292C12.7132 30.3166 12.2153 31.4724 11.9582 32.6919L19.786 34.3425L27.6139 35.9932C27.4318 36.8566 27.0793 37.675 26.577 38.4004L19.9998 33.8462ZM19.786 34.3425L11.9582 32.6919C11.701 33.9113 11.6898 35.1698 11.9251 36.3937L19.7812 34.883L27.6373 33.3723C27.8039 34.2388 27.7959 35.1298 27.6139 35.9932L19.786 34.3425ZM19.7812 34.883L11.9251 36.3937C12.1605 37.6175 12.6377 38.7821 13.3287 39.8191L19.9861 35.383L26.6435 30.9469C27.1328 31.6812 27.4706 32.5057 27.6373 33.3723L19.7812 34.883ZM19.9861 35.383L13.3287 39.8191C14.0198 40.8562 14.9108 41.745 15.9497 42.4334L20.3687 35.7647L24.7878 29.0959C25.5233 29.5834 26.1542 30.2126 26.6435 30.9469L19.9861 35.383ZM20.3687 35.7647L15.9497 42.4334C16.9886 43.1218 18.1544 43.596 19.3788 43.8282L20.8693 35.9683L22.3599 28.1084C23.2268 28.2728 24.0522 28.6085 24.7878 29.0959L20.3687 35.7647ZM20.8693 35.9683L19.3788 43.8282C20.6032 44.0604 21.8617 44.0459 23.0805 43.7857L21.4097 35.9621L19.739 28.1385C20.6019 27.9542 21.4929 27.944 22.3599 28.1084L20.8693 35.9683ZM21.4097 35.9621L23.0805 43.7857C24.2993 43.5254 25.4539 43.0245 26.4766 42.3125L21.9055 35.747L17.3344 29.1816C18.0585 28.6774 18.876 28.3228 19.739 28.1385L21.4097 35.9621ZM21.9055 35.747C26.3437 42.403 26.3436 42.4031 26.3436 42.4031C26.3436 42.4031 26.3436 42.4031 26.3437 42.403C26.3438 42.403 26.3439 42.4029 26.3442 42.4027C26.3447 42.4023 26.3456 42.4017 26.3469 42.4009C26.3494 42.3992 26.3532 42.3967 26.3585 42.3931C26.3691 42.3861 26.3852 42.3754 26.4066 42.3611C26.4495 42.3326 26.5137 42.2898 26.5978 42.2339C26.7661 42.1221 27.0136 41.9577 27.3281 41.7494C27.9572 41.3326 28.8536 40.7403 29.9189 40.041C32.0537 38.6394 34.8481 36.8199 37.5226 35.1234L33.2373 28.3679L28.9521 21.6124C26.1784 23.3718 23.3068 25.2419 21.1378 26.6659C20.0511 27.3793 19.1361 27.9839 18.4918 28.4107C18.1696 28.6241 17.9149 28.7933 17.7401 28.9095C17.6527 28.9676 17.5852 29.0125 17.5392 29.0431C17.5162 29.0584 17.4986 29.0701 17.4866 29.0782C17.4806 29.0822 17.4759 29.0853 17.4727 29.0874C17.4711 29.0885 17.4698 29.0893 17.469 29.0899C17.4685 29.0902 17.4681 29.0904 17.4679 29.0906C17.4677 29.0907 17.4676 29.0908 17.4675 29.0909C17.4674 29.0909 17.4673 29.091 21.9055 35.747ZM32 0V-8C9.91991 -8 -8 9.91991 -8 32H0H8C8 18.7565 18.7565 8 32 8V0ZM0 32H-8C-8 54.0801 9.91991 72 32 72V64V56C18.7565 56 8 45.2435 8 32H0ZM32 64V72C54.0801 72 72 54.0801 72 32H64H56C56 45.2435 45.2435 56 32 56V64ZM64 32H72C72 9.91991 54.0801 -8 32 -8V0V8C45.2435 8 56 18.7565 56 32H64ZM32 2.73504V10.735C43.7338 10.735 53.265 20.2662 53.265 32H61.265H69.265C69.265 11.4297 52.5703 -5.26496 32 -5.26496V2.73504ZM61.265 32H53.265C53.265 43.7338 43.7338 53.265 32 53.265V61.265V69.265C52.5703 69.265 69.265 52.5703 69.265 32H61.265ZM32 61.265V53.265C20.2662 53.265 10.735 43.7338 10.735 32H2.73504H-5.26496C-5.26496 52.5703 11.4297 69.265 32 69.265V61.265ZM2.73504 32H10.735C10.735 20.2662 20.2662 10.735 32 10.735V2.73504V-5.26496C11.4297 -5.26496 -5.26496 11.4297 -5.26496 32H2.73504ZM20.049 35.6923L12.4021 38.043L15.3286 47.5631L22.9755 45.2124L30.6223 42.8618L27.6958 33.3417L20.049 35.6923ZM22.9755 45.2124L15.3396 47.5986C15.3927 47.7686 15.4727 48.0088 15.5837 48.2864L23.0116 45.3153L30.4394 42.3442C30.5241 42.5561 30.5801 42.7263 30.6113 42.8262L22.9755 45.2124ZM23.0116 45.3153L15.5802 48.2774C16.1103 49.6074 16.9485 51.221 18.3162 52.5353L23.8594 46.767L29.4026 40.9988C29.9245 41.5003 30.2019 41.9297 30.3025 42.0951C30.4242 42.2951 30.4601 42.3961 30.4429 42.3531L23.0116 45.3153ZM23.8594 46.767L18.3127 52.5319C20.4931 54.6298 23.0929 55.2892 25.2261 55.2349L25.0224 47.2375L24.8186 39.2401C25.435 39.2244 26.2487 39.296 27.1406 39.6127C28.0525 39.9365 28.8178 40.4361 29.4062 41.0022L23.8594 46.767ZM25.0224 47.2375L25.2576 55.234C26.8832 55.1862 28.8387 54.6948 30.6312 53.3688C32.5253 51.9676 33.7452 49.9975 34.3186 47.8666L26.5934 45.7879L18.8682 43.7092C19.133 42.7248 19.8092 41.4724 21.1158 40.5058C22.3208 39.6144 23.645 39.2745 24.7872 39.2409L25.0224 47.2375ZM26.5934 45.7879L34.3364 47.7991C34.4601 47.3231 34.5665 46.7646 34.6142 46.1377L26.6371 45.5319L18.6601 44.926C18.6946 44.472 18.7704 44.0842 18.8503 43.7767L26.5934 45.7879ZM26.6371 45.5319L34.6162 46.1106L35.0582 40.017L27.0791 39.4382L19.1001 38.8595L18.6581 44.9532L26.6371 45.5319ZM27.0791 39.4382L22.3387 45.8825L33.8992 54.3863L38.6396 47.942L43.38 41.4977L31.8195 32.9939L27.0791 39.4382ZM38.6396 47.942L33.804 54.3152C36.329 56.231 40.0327 57.6645 44.0435 56.4379L41.7039 48.7877L39.3643 41.1374C41.7582 40.4054 43.3264 41.456 43.4752 41.5689L38.6396 47.942ZM41.7039 48.7877L44.0404 56.4389C48.2626 55.1496 50.6606 51.6208 51.5176 47.9669L43.729 46.1402L35.9403 44.3134C35.9692 44.1903 36.1345 43.5871 36.7316 42.868C37.3632 42.1074 38.2739 41.4704 39.3675 41.1365L41.7039 48.7877ZM43.729 46.1402L51.4901 48.0805C51.4765 48.135 51.4649 48.1786 51.458 48.2046C51.4544 48.218 51.4514 48.2289 51.4495 48.2359C51.4477 48.2425 51.4463 48.2476 51.4462 48.2481C51.4417 48.2647 51.4609 48.1953 51.4806 48.1188C51.5184 47.9717 51.6251 47.5482 51.6866 46.9952L43.7355 46.1117L35.7845 45.2283C35.8448 44.6851 35.9494 44.2714 35.9847 44.1339C36.0032 44.0622 36.0211 43.9976 36.0153 44.0187C36.0149 44.0203 36.0089 44.0422 36.0017 44.0691C35.9941 44.0973 35.982 44.1432 35.9678 44.1999L43.729 46.1402ZM43.7355 46.1117L51.5612 47.7726L57.2676 20.8849L49.4419 19.2241L41.6162 17.5632L35.9098 44.4509L43.7355 46.1117ZM49.4419 19.2241L57.2266 21.0677C57.8636 18.3777 57.9548 14.5547 55.5368 11.3136L49.1247 16.0974L42.7125 20.8812C41.9504 19.8597 41.7119 18.8873 41.6431 18.3186C41.5731 17.7398 41.6518 17.4036 41.6572 17.3805L49.4419 19.2241ZM49.1247 16.0974L55.5512 11.333C54.3145 9.66476 52.4898 8.26371 50.1457 7.58652C47.8761 6.93082 45.6552 7.10436 43.7407 7.62188L45.8284 15.3447L47.916 23.0675C47.7378 23.1157 46.8953 23.3018 45.7049 22.9579C44.4401 22.5925 43.3955 21.8025 42.6981 20.8617L49.1247 16.0974ZM45.8284 15.3447L43.8624 7.59001C43.4726 7.68884 43.0898 7.81341 42.7166 7.96287L45.6905 15.3895L48.6645 22.8162C48.3811 22.9297 48.0904 23.0243 47.7944 23.0994L45.8284 15.3447ZM45.6905 15.3895L42.7975 7.93096L9.28121 20.9312L12.1742 28.3897L15.0672 35.8483L48.5835 22.8481L45.6905 15.3895ZM12.1742 28.3897L9.31304 20.9189C8.88432 21.0831 8.55063 21.2502 8.44445 21.3033L12.0222 28.4587L15.5999 35.6141C15.5882 35.6199 15.5258 35.6511 15.4378 35.6916C15.3477 35.733 15.2095 35.7939 15.0354 35.8606L12.1742 28.3897ZM12.0222 28.4587L8.23428 21.4123C4.60922 23.3609 2.11178 26.7359 2.0762 30.8488L10.0759 30.918L18.0756 30.9872C18.0653 32.1773 17.7145 33.3096 17.1024 34.2235C16.5164 35.0984 15.9098 35.4515 15.81 35.5051L12.0222 28.4587ZM10.0759 30.918L2.07606 30.8665C2.0449 35.7093 5.34967 39.0777 8.70059 40.4217L11.6786 32.9967L14.6567 25.5716C15.9837 26.1038 18.096 27.8268 18.0757 30.9695L10.0759 30.918ZM11.6786 32.9967L8.75341 40.4427C8.70482 40.4236 8.83632 40.4759 8.95194 40.5186C9.09606 40.5718 9.33825 40.6573 9.6431 40.7414L11.7705 33.0295L13.898 25.3175C14.1711 25.3929 14.3826 25.468 14.4964 25.51C14.5534 25.531 14.5963 25.5477 14.6118 25.5538C14.6198 25.5569 14.6253 25.5591 14.6231 25.5582C14.6226 25.558 14.6222 25.5578 14.6211 25.5574C14.6202 25.5571 14.6188 25.5565 14.6172 25.5559C14.6142 25.5547 14.6094 25.5528 14.6039 25.5506L11.6786 32.9967ZM11.7705 33.0295L9.32086 40.6452L17.5993 43.308L20.049 35.6923L22.4986 28.0766L14.2202 25.4138L11.7705 33.0295ZM46.8699 17.9233L38.888 17.3852C38.8886 17.3758 38.8917 17.33 38.9013 17.2536C38.9064 17.2132 38.915 17.1509 38.9289 17.0707C38.9424 16.9924 38.9647 16.8748 39.0002 16.7277L46.7769 18.6049L54.5535 20.482C54.7699 19.5858 54.8305 18.7771 54.8518 18.4614L46.8699 17.9233ZM46.7769 18.6049L39.0021 16.7201L38.9933 16.7562L46.7681 18.641L54.543 20.5257L54.5517 20.4896L46.7769 18.6049ZM46.7681 18.641L38.9424 16.9805L33.2381 43.8649L41.0639 45.5253L48.8897 47.1858L54.5939 20.3014L46.7681 18.641ZM41.0639 45.5253L33.347 43.4159C33.4131 43.1743 33.4995 42.9386 33.6054 42.7114L40.8561 46.092L48.1067 49.4726C48.383 48.8801 48.6085 48.2653 48.7808 47.6348L41.0639 45.5253ZM40.8561 46.092L44.2841 38.8637C44.5163 38.9738 44.7382 39.1045 44.9471 39.2541L40.2894 45.7584L35.6316 52.2626C36.1977 52.668 36.7989 53.022 37.428 53.3203L40.8561 46.092ZM40.2894 45.7584L44.8068 39.1559L44.786 39.1416L40.2686 45.7441L35.7512 52.3466L35.7719 52.3609L40.2894 45.7584ZM40.2686 45.7441L45.0084 39.2994L31.4437 29.3231L26.7039 35.7678L21.964 42.2125L35.5288 52.1888L40.2686 45.7441ZM26.7039 35.7678L31.4322 29.3147C30.0832 28.3262 28.4942 27.7169 26.8301 27.55L26.0316 35.51L25.233 43.47C24.0552 43.3519 22.9304 42.9206 21.9755 42.2209L26.7039 35.7678ZM26.0316 35.51L26.8301 27.55C25.1661 27.383 23.4877 27.6646 21.9692 28.3653L25.3215 35.6291L28.6737 42.8929C27.5989 43.3889 26.4109 43.5882 25.233 43.47L26.0316 35.51ZM25.3215 35.6291L21.9692 28.3653C20.4508 29.0661 19.1475 30.1606 18.1949 31.5351L24.7701 36.0922L31.3453 40.6492C30.671 41.6222 29.7485 42.3969 28.6737 42.8929L25.3215 35.6291ZM24.7701 36.0922L18.1949 31.5351C17.2422 32.9097 16.6749 34.5142 16.5518 36.182L24.5301 36.771L32.5083 37.36C32.4212 38.5405 32.0196 39.6763 31.3453 40.6492L24.7701 36.0922ZM24.5301 36.771L16.5511 36.1911L16.3049 39.5782L24.2839 40.1581L32.2629 40.738L32.509 37.3509L24.5301 36.771ZM24.2839 40.1581L31.9305 37.8065L30.1002 31.855L22.4536 34.2066L14.807 36.5582L16.6373 42.5097L24.2839 40.1581ZM22.4536 34.2066L30.0981 31.8482C29.654 30.4088 28.8694 29.0978 27.8108 28.0262L22.1195 33.6483L16.4281 39.2704C15.6788 38.5119 15.1235 37.5839 14.8091 36.5651L22.4536 34.2066ZM22.1195 33.6483L27.8108 28.0262C26.7523 26.9545 25.4509 26.154 24.0171 25.6923L21.5653 33.3074L19.1134 40.9224C18.0986 40.5956 17.1774 40.029 16.4281 39.2704L22.1195 33.6483ZM21.5653 33.3074L24.0158 25.6919L16.0875 23.1407L13.6369 30.7561L11.1864 38.3715L19.1147 40.9228L21.5653 33.3074ZM13.6369 30.7561L16.5298 38.2147L49.4948 25.429L46.6018 17.9703L43.7089 10.5117L10.744 23.2975L13.6369 30.7561ZM46.6018 17.9703L48.3675 25.7731C48.2022 25.8105 48.0351 25.8398 47.8669 25.8609L46.8699 17.9233L45.8729 9.98565C45.5245 10.0294 45.1785 10.0901 44.8362 10.1676L46.6018 17.9703ZM25.9195 46.8972L31.1485 52.9517L37.0945 47.8164L31.8654 41.7619L26.6364 35.7074L20.6904 40.8427L25.9195 46.8972ZM31.8654 41.7619L37.0928 47.8179C38.9736 46.1944 40.1324 43.8903 40.3144 41.4125L32.3358 40.8266L24.3573 40.2407C24.4861 38.4865 25.3065 36.8553 26.6381 35.706L31.8654 41.7619ZM32.3358 40.8266L40.3144 41.4125C40.4963 38.9346 39.6865 36.486 38.0631 34.6052L32.0071 39.8326L25.9512 45.06C24.8018 43.7285 24.2285 41.995 24.3573 40.2407L32.3358 40.8266ZM32.0071 39.8326L38.0631 34.6052C36.4396 32.7245 34.1355 31.5657 31.6577 31.3837L31.0718 39.3622L30.4859 47.3407C28.7317 47.2119 27.1005 46.3915 25.9512 45.06L32.0071 39.8326ZM31.0718 39.3622L31.6577 31.3837C29.1799 31.2017 26.7313 32.0115 24.8504 33.635L30.0778 39.6909L35.3052 45.7469C33.9736 46.8963 32.2401 47.4695 30.4859 47.3407L31.0718 39.3622ZM30.0778 39.6909L24.8482 33.6369L18.9033 38.7722L24.1329 44.8263L29.3625 50.8803L35.3074 45.745L30.0778 39.6909ZM24.1329 44.8263L18.9074 38.7687C17.9759 39.5723 17.2118 40.5514 16.6588 41.6502L23.8047 45.2469L30.9505 48.8436C30.559 49.6216 30.018 50.3149 29.3585 50.8838L24.1329 44.8263ZM23.8047 45.2469L16.6588 41.6502C16.1057 42.749 15.7745 43.946 15.684 45.1729L23.6624 45.7612L31.6407 46.3495C31.5766 47.2181 31.3421 48.0656 30.9505 48.8436L23.8047 45.2469ZM23.6624 45.7612L15.684 45.1729C15.5935 46.3997 15.7456 47.6324 16.1315 48.8004L23.7277 46.2908L31.3238 43.7811C31.5971 44.6081 31.7047 45.4808 31.6407 46.3495L23.6624 45.7612ZM23.7277 46.2908L16.1315 48.8004C16.5174 49.9685 17.1296 51.0491 17.9332 51.9806L23.9907 46.755L30.0482 41.5295C30.6171 42.189 31.0506 42.9541 31.3238 43.7811L23.7277 46.2908ZM23.9907 46.755L17.9332 51.9806C18.7367 52.912 19.7158 53.6761 20.8147 54.2292L24.4114 47.0833L28.0081 39.9374C28.7861 40.329 29.4793 40.87 30.0482 41.5295L23.9907 46.755ZM24.4114 47.0833L20.8147 54.2292C21.9134 54.7822 23.1104 55.1135 24.3373 55.2039L24.9256 47.2256L25.5139 39.2472C26.3826 39.3113 27.2301 39.5458 28.0081 39.9374L24.4114 47.0833ZM24.9256 47.2256L24.3373 55.2039C25.5641 55.2944 26.7968 55.1423 27.9649 54.7564L25.4552 47.1603L22.9455 39.5641C23.7726 39.2908 24.6453 39.1832 25.5139 39.2472L24.9256 47.2256ZM25.4552 47.1603L27.9649 54.7564C29.1329 54.3705 30.2135 53.7583 31.145 52.9548L25.9195 46.8972L20.6939 40.8397C21.3534 40.2708 22.1185 39.8373 22.9455 39.5641L25.4552 47.1603Z" fill="white" mask="url(#path-1-inside-1_574_16773)"/>
</svg>
