<svg width="64" height="64" viewBox="0 0 64 64" fill="none" xmlns="http://www.w3.org/2000/svg">
<path d="M31.292 1C39.4376 1 47.1476 4.07155 53.0977 9.67285L53.668 10.2236C59.3969 15.883 62.6806 23.2868 62.9775 31.1494L62.9971 31.9111C63.1009 39.8136 60.1824 47.1786 54.7588 52.8086L54.2256 53.3477C48.5696 58.9348 40.9917 61.9814 32.875 61.9814C26.9881 61.9814 21.2603 60.3932 16.2529 57.3145L15.8154 57.0459L15.3418 57.2441L1.80371 62.9355C1.67094 62.9912 1.60002 63 1.57617 63L1.50586 62.9961C1.43555 62.9877 1.36714 62.9668 1.30469 62.9346C1.22176 62.8918 1.15148 62.8304 1.09961 62.7568C1.04777 62.6833 1.01613 62.5987 1.00488 62.5117C0.996494 62.4465 0.999199 62.3803 1.01465 62.3164L1.03418 62.2539L6.23242 48.374L6.40918 47.9023L6.13574 47.4805C2.56241 41.9553 0.831153 35.4181 1.2207 28.9287L1.26562 28.3008C1.82081 21.4682 4.7292 15.046 9.47461 10.1426L9.93945 9.67285C15.5984 4.08289 23.1771 1.00005 31.292 1ZM31.292 2.11328C23.7475 2.11333 16.6655 4.89004 11.2793 9.9541L10.7627 10.4512C0.871228 20.2222 -0.466699 35.8148 7.53125 47.5195V47.5186C7.58118 47.5917 7.6116 47.675 7.62207 47.7607C7.62989 47.825 7.62658 47.8902 7.61133 47.9531L7.5918 48.0156L3.38379 59.251L2.57227 61.4189L4.70703 60.5244L15.6504 55.9395C15.7388 55.9024 15.836 55.8868 15.9326 55.8955C16.005 55.902 16.0748 55.9219 16.1387 55.9531L16.2002 55.9883C21.0257 59.1282 26.5889 60.8348 32.3203 60.9385L32.875 60.9434C40.419 60.9435 47.5008 58.1677 52.8867 53.1035L53.4023 52.6064C58.7767 47.2975 61.7585 40.2342 61.8457 32.6602V31.9258C61.7455 24.3058 58.7369 17.0933 53.3711 11.5352L52.8447 11.002C47.0453 5.27304 39.3887 2.11328 31.292 2.11328ZM22.042 13.5586C23.0144 13.5586 23.4898 13.7789 23.8193 14.0586C24.114 14.3086 24.355 14.6522 24.6621 15.168L24.9951 15.7432C25.1075 15.9405 25.2295 16.1541 25.3652 16.3877L25.8193 17.1514L25.8203 17.1533C25.9175 17.3123 26.0323 17.4906 26.1553 17.6787L26.541 18.2627C27.3948 19.5475 28.0313 20.5549 28.3945 21.4062C28.7533 22.2473 28.7713 22.7674 28.6191 23.1592C28.4641 23.5534 28.1572 23.965 27.6992 24.417C27.4706 24.6426 27.22 24.864 26.9521 25.0869L26.1025 25.7686C25.7051 26.0821 25.0057 26.6296 24.665 26.9961L24.3242 27.3633L24.4141 27.8564C24.5595 28.6551 25.1003 29.7063 25.8643 30.8223C26.5539 31.8295 27.4825 32.9716 28.6309 34.1572L29.1367 34.668C30.5191 36.0335 31.8616 37.1186 33.0254 37.8965C34.0141 38.5574 34.9487 39.0473 35.7041 39.2559L36.0156 39.3281L36.502 39.415L36.8662 39.083C37.0505 38.9151 37.28 38.6595 37.5029 38.3975L38.1006 37.6709C38.5752 37.0836 39.0151 36.5409 39.4736 36.0879C39.8748 35.6915 40.2464 35.4095 40.6035 35.2422L40.7559 35.1777H40.7568C40.9052 35.1212 41.0806 35.087 41.2832 35.0869C41.7279 35.0869 42.2942 35.2487 43.0635 35.6299C43.6362 35.9137 44.2689 36.2909 44.9902 36.748L45.7432 37.2314C45.9428 37.3609 46.1425 37.4908 46.333 37.6123L46.8672 37.9443L46.8691 37.9453C47.1485 38.1113 47.404 38.2589 47.6396 38.3926L48.292 38.7578C49.1549 39.2375 49.6617 39.5328 49.999 39.9209C50.2796 40.2437 50.5001 40.7068 50.5 41.6592L50.4883 41.8418C50.4358 42.2925 50.1998 42.9118 49.7656 43.6338C49.3467 44.3304 48.7979 45.0332 48.2324 45.6367L47.9893 45.8887C46.0973 47.7974 44.0004 48.748 42.1152 48.748H42.1123C36.5926 48.7479 30.1387 45.7922 24.3545 40.4307L23.7969 39.9043L23.7959 39.9023L23.7461 39.8594C18.0057 34.0152 14.8274 27.431 14.8232 21.8291C14.8232 20.0955 15.6718 18.1714 17.374 16.3945L17.7256 16.041C18.3872 15.4015 19.2054 14.7615 20.0166 14.2881C20.8559 13.7983 21.5661 13.5587 22.042 13.5586ZM21.9199 14.6846C21.643 14.7266 21.3598 14.8395 21.1162 14.9561C20.8563 15.0805 20.5729 15.243 20.2812 15.4336C19.698 15.8149 19.0414 16.3343 18.4219 16.9502C17.2242 18.1409 15.9746 19.8864 15.9746 21.832L15.9854 22.3457C16.1875 27.6793 19.4519 33.8864 24.6055 39.125L24.625 39.1445C29.9287 44.2361 36.2066 47.4554 41.5938 47.6553L42.1123 47.665H42.1143C44.0679 47.6627 45.8281 46.4369 47.0361 45.252C47.6598 44.6402 48.1864 43.9907 48.5732 43.4141C48.7665 43.1259 48.932 42.8454 49.0586 42.5879C49.1474 42.4073 49.2345 42.2032 49.291 41.9951L49.3359 41.7861L49.3486 41.707V41.626C49.3473 41.3809 49.3322 41.2099 49.3105 41.084L49.25 40.7295L48.9766 40.4951L48.8428 40.3906C48.6978 40.2861 48.5257 40.1829 48.3887 40.1025L47.7178 39.7236C47.3208 39.5031 46.8373 39.2336 46.2637 38.8926H46.2627C46.0943 38.7921 45.9131 38.6788 45.7197 38.5557L45.1016 38.1572C44.6953 37.8937 44.0638 37.4839 43.4434 37.1172C43.1333 36.934 42.8156 36.7546 42.5225 36.6074C42.2447 36.468 41.9309 36.3273 41.6465 36.2549L41.2061 36.1426L40.8311 36.4014C40.5001 36.6303 40.1288 37.0307 39.8408 37.3584C39.6848 37.5359 39.5292 37.7201 39.3867 37.8926L39.0088 38.3564C38.4517 39.0457 38.0079 39.5896 37.5586 39.9746C37.1289 40.3427 36.7878 40.4811 36.4521 40.4824C35.8493 40.4811 35.1239 40.2861 34.3125 39.916C33.5082 39.5491 32.6772 39.0376 31.8828 38.4727C30.2936 37.3425 28.928 36.0543 28.3135 35.4473C27.6988 34.84 26.3947 33.4914 25.251 31.9229C24.6793 31.1388 24.1626 30.3201 23.792 29.5283C23.4173 28.7278 23.2216 28.0163 23.2207 27.4297C23.2207 27.1064 23.3562 26.7729 23.7305 26.3457C24.0235 26.0112 24.4075 25.6797 24.877 25.3018L25.375 24.9062C25.6386 24.6984 26.0225 24.396 26.3799 24.0898C26.6691 23.8421 27.0137 23.5316 27.251 23.2402L27.3447 23.1172L27.6182 22.7354L27.499 22.2812C27.4245 21.9975 27.2809 21.6864 27.1396 21.4121C26.9903 21.1221 26.8085 20.8082 26.623 20.502C26.4375 20.1956 26.2418 19.886 26.0586 19.6035L25.5713 18.8652C25.4282 18.6499 25.293 18.4454 25.168 18.2539L24.8271 17.7188C24.6543 17.435 24.5004 17.1737 24.3613 16.9346L23.9863 16.2812C23.8644 16.0671 23.7274 15.826 23.6025 15.6182C23.4941 15.4377 23.344 15.1953 23.2041 15.0361L22.9688 14.7686L22.6182 14.71L22.3936 14.6846C22.3042 14.6782 22.1988 14.6744 22.0742 14.6738L21.9971 14.6729L21.9199 14.6846Z" stroke="white" stroke-width="2"/>
</svg>
